G75*
%MOIN*%
%OFA0B0*%
%FSLAX24Y24*%
%IPPOS*%
%LPD*%
%AMOC8*
5,1,8,0,0,1.08239X$1,22.5*
%
%ADD10R,0.0394X0.0433*%
%ADD11C,0.0555*%
%ADD12R,0.0480X0.0880*%
%ADD13R,0.1417X0.0866*%
%ADD14OC8,0.0640*%
%ADD15C,0.0100*%
%ADD16C,0.0436*%
%ADD17C,0.0160*%
D10*
X003000Y014965D03*
X003000Y015635D03*
X009465Y014950D03*
X010135Y014950D03*
D11*
X008750Y015000D03*
X008750Y014200D03*
X008750Y015800D03*
X008750Y016600D03*
X003750Y016450D03*
X003750Y015650D03*
X003750Y014850D03*
X003750Y014050D03*
X005750Y004700D03*
X006750Y004700D03*
D12*
X003860Y005770D03*
X002950Y005770D03*
X002040Y005770D03*
D13*
X002950Y003330D03*
D14*
X004800Y002950D03*
X004800Y001950D03*
X005800Y001950D03*
X005800Y002950D03*
X006800Y002950D03*
X006800Y001950D03*
X007800Y001950D03*
X007800Y002950D03*
D15*
X000370Y000370D02*
X000370Y020380D01*
X011930Y020380D01*
X011930Y000370D01*
X000370Y000370D01*
X000370Y000393D02*
X011930Y000393D01*
X011930Y000492D02*
X000370Y000492D01*
X000370Y000590D02*
X011930Y000590D01*
X011930Y000689D02*
X011164Y000689D01*
X011117Y000666D02*
X011419Y000812D01*
X011628Y001074D01*
X011702Y001400D01*
X011628Y001726D01*
X011628Y001726D01*
X011419Y001988D01*
X011117Y002134D01*
X010783Y002134D01*
X010481Y001988D01*
X010272Y001726D01*
X010198Y001400D01*
X010272Y001074D01*
X010272Y001074D01*
X010481Y000812D01*
X010783Y000666D01*
X011117Y000666D01*
X011369Y000787D02*
X011930Y000787D01*
X011930Y000886D02*
X011478Y000886D01*
X011419Y000812D02*
X011419Y000812D01*
X011419Y000812D01*
X011557Y000984D02*
X011930Y000984D01*
X011930Y001083D02*
X011630Y001083D01*
X011628Y001074D02*
X011628Y001074D01*
X011653Y001181D02*
X011930Y001181D01*
X011930Y001280D02*
X011675Y001280D01*
X011698Y001378D02*
X011930Y001378D01*
X011930Y001477D02*
X011685Y001477D01*
X011662Y001575D02*
X011930Y001575D01*
X011930Y001674D02*
X011640Y001674D01*
X011591Y001772D02*
X011930Y001772D01*
X011930Y001871D02*
X011513Y001871D01*
X011434Y001969D02*
X011930Y001969D01*
X011930Y002068D02*
X011254Y002068D01*
X011419Y001988D02*
X011419Y001988D01*
X011930Y002166D02*
X009370Y002166D01*
X009272Y002068D02*
X010646Y002068D01*
X010481Y001988D02*
X010481Y001988D01*
X010481Y001988D01*
X010466Y001969D02*
X009173Y001969D01*
X009075Y001871D02*
X010387Y001871D01*
X010309Y001772D02*
X008976Y001772D01*
X008942Y001738D02*
X009012Y001808D01*
X010762Y003558D01*
X010800Y003650D01*
X010800Y015900D01*
X010762Y015992D01*
X010012Y016742D01*
X009942Y016812D01*
X009850Y016850D01*
X009131Y016850D01*
X009129Y016853D01*
X009003Y016979D01*
X008839Y017047D01*
X008661Y017047D01*
X008497Y016979D01*
X008395Y016878D01*
X008395Y019431D01*
X008281Y019545D01*
X004269Y019545D01*
X004155Y019431D01*
X004155Y016642D01*
X004129Y016703D01*
X004003Y016829D01*
X003839Y016897D01*
X003661Y016897D01*
X003497Y016829D01*
X003371Y016703D01*
X003303Y016539D01*
X003303Y016361D01*
X003371Y016197D01*
X003497Y016071D01*
X003572Y016039D01*
X003526Y016016D01*
X003472Y015976D01*
X003424Y015928D01*
X003384Y015874D01*
X003354Y015814D01*
X003347Y015793D01*
X003347Y015871D01*
X003337Y015909D01*
X003317Y015943D01*
X003289Y015971D01*
X003255Y015991D01*
X003217Y016001D01*
X003048Y016001D01*
X003048Y015683D01*
X002952Y015683D01*
X002952Y016001D01*
X002783Y016001D01*
X002745Y015991D01*
X002711Y015971D01*
X002683Y015943D01*
X002663Y015909D01*
X002653Y015871D01*
X002653Y015683D01*
X002952Y015683D01*
X002952Y015586D01*
X002653Y015586D01*
X002653Y015398D01*
X002663Y015360D01*
X002683Y015326D01*
X002695Y015314D01*
X002633Y015252D01*
X002633Y014678D01*
X002700Y014612D01*
X002700Y006380D01*
X002640Y006380D01*
X002540Y006280D01*
X002540Y005260D01*
X002640Y005160D01*
X002700Y005160D01*
X002700Y004850D01*
X002738Y004758D01*
X003563Y003933D01*
X002250Y003933D01*
X002250Y005160D01*
X002350Y005160D01*
X002450Y005260D01*
X002450Y006280D01*
X002350Y006380D01*
X001730Y006380D01*
X001630Y006280D01*
X001630Y005260D01*
X001730Y005160D01*
X001750Y005160D01*
X001750Y002550D01*
X001788Y002458D01*
X001858Y002388D01*
X003088Y001158D01*
X003158Y001088D01*
X003250Y001050D01*
X006950Y001050D01*
X007042Y001088D01*
X007442Y001488D01*
X007505Y001552D01*
X007597Y001460D01*
X008003Y001460D01*
X008243Y001700D01*
X008850Y001700D01*
X008942Y001738D01*
X009469Y002265D02*
X011930Y002265D01*
X011930Y002363D02*
X009567Y002363D01*
X009666Y002462D02*
X011930Y002462D01*
X011930Y002560D02*
X009764Y002560D01*
X009863Y002659D02*
X011930Y002659D01*
X011930Y002757D02*
X009961Y002757D01*
X010060Y002856D02*
X011930Y002856D01*
X011930Y002954D02*
X010158Y002954D01*
X010257Y003053D02*
X011930Y003053D01*
X011930Y003151D02*
X010355Y003151D01*
X010454Y003250D02*
X011930Y003250D01*
X011930Y003349D02*
X010552Y003349D01*
X010651Y003447D02*
X011930Y003447D01*
X011930Y003546D02*
X010749Y003546D01*
X010797Y003644D02*
X011930Y003644D01*
X011930Y003743D02*
X010800Y003743D01*
X010800Y003841D02*
X011930Y003841D01*
X011930Y003940D02*
X010800Y003940D01*
X010800Y004038D02*
X011930Y004038D01*
X011930Y004137D02*
X010800Y004137D01*
X010800Y004235D02*
X011930Y004235D01*
X011930Y004334D02*
X010800Y004334D01*
X010800Y004432D02*
X011930Y004432D01*
X011930Y004531D02*
X010800Y004531D01*
X010800Y004629D02*
X011930Y004629D01*
X011930Y004728D02*
X010800Y004728D01*
X010800Y004826D02*
X011930Y004826D01*
X011930Y004925D02*
X010800Y004925D01*
X010800Y005023D02*
X011930Y005023D01*
X011930Y005122D02*
X010800Y005122D01*
X010800Y005220D02*
X011930Y005220D01*
X011930Y005319D02*
X010800Y005319D01*
X010800Y005417D02*
X011930Y005417D01*
X011930Y005516D02*
X010800Y005516D01*
X010800Y005614D02*
X011930Y005614D01*
X011930Y005713D02*
X010800Y005713D01*
X010800Y005811D02*
X011930Y005811D01*
X011930Y005910D02*
X010800Y005910D01*
X010800Y006008D02*
X011930Y006008D01*
X011930Y006107D02*
X010800Y006107D01*
X010800Y006205D02*
X011930Y006205D01*
X011930Y006304D02*
X010800Y006304D01*
X010800Y006402D02*
X011930Y006402D01*
X011930Y006501D02*
X010800Y006501D01*
X010800Y006599D02*
X011930Y006599D01*
X011930Y006698D02*
X010800Y006698D01*
X010800Y006796D02*
X011930Y006796D01*
X011930Y006895D02*
X010800Y006895D01*
X010800Y006993D02*
X011930Y006993D01*
X011930Y007092D02*
X010800Y007092D01*
X010800Y007190D02*
X011930Y007190D01*
X011930Y007289D02*
X010800Y007289D01*
X010800Y007387D02*
X011930Y007387D01*
X011930Y007486D02*
X010800Y007486D01*
X010800Y007584D02*
X011930Y007584D01*
X011930Y007683D02*
X010800Y007683D01*
X010800Y007781D02*
X011930Y007781D01*
X011930Y007880D02*
X010800Y007880D01*
X010800Y007978D02*
X011930Y007978D01*
X011930Y008077D02*
X010800Y008077D01*
X010800Y008175D02*
X011930Y008175D01*
X011930Y008274D02*
X010800Y008274D01*
X010800Y008372D02*
X011930Y008372D01*
X011930Y008471D02*
X010800Y008471D01*
X010800Y008569D02*
X011930Y008569D01*
X011930Y008668D02*
X010800Y008668D01*
X010800Y008766D02*
X011930Y008766D01*
X011930Y008865D02*
X010800Y008865D01*
X010800Y008963D02*
X011930Y008963D01*
X011930Y009062D02*
X010800Y009062D01*
X010800Y009160D02*
X011930Y009160D01*
X011930Y009259D02*
X010800Y009259D01*
X010800Y009357D02*
X011930Y009357D01*
X011930Y009456D02*
X010800Y009456D01*
X010800Y009554D02*
X011930Y009554D01*
X011930Y009653D02*
X010800Y009653D01*
X010800Y009751D02*
X011930Y009751D01*
X011930Y009850D02*
X010800Y009850D01*
X010800Y009948D02*
X011930Y009948D01*
X011930Y010047D02*
X010800Y010047D01*
X010800Y010145D02*
X011930Y010145D01*
X011930Y010244D02*
X010800Y010244D01*
X010800Y010342D02*
X011930Y010342D01*
X011930Y010441D02*
X010800Y010441D01*
X010800Y010539D02*
X011930Y010539D01*
X011930Y010638D02*
X010800Y010638D01*
X010800Y010736D02*
X011930Y010736D01*
X011930Y010835D02*
X010800Y010835D01*
X010800Y010933D02*
X011930Y010933D01*
X011930Y011032D02*
X010800Y011032D01*
X010800Y011130D02*
X011930Y011130D01*
X011930Y011229D02*
X010800Y011229D01*
X010800Y011327D02*
X011930Y011327D01*
X011930Y011426D02*
X010800Y011426D01*
X010800Y011524D02*
X011930Y011524D01*
X011930Y011623D02*
X010800Y011623D01*
X010800Y011721D02*
X011930Y011721D01*
X011930Y011820D02*
X010800Y011820D01*
X010800Y011918D02*
X011930Y011918D01*
X011930Y012017D02*
X010800Y012017D01*
X010800Y012115D02*
X011930Y012115D01*
X011930Y012214D02*
X010800Y012214D01*
X010800Y012312D02*
X011930Y012312D01*
X011930Y012411D02*
X010800Y012411D01*
X010800Y012509D02*
X011930Y012509D01*
X011930Y012608D02*
X010800Y012608D01*
X010800Y012706D02*
X011930Y012706D01*
X011930Y012805D02*
X010800Y012805D01*
X010800Y012903D02*
X011930Y012903D01*
X011930Y013002D02*
X010800Y013002D01*
X010800Y013100D02*
X011930Y013100D01*
X011930Y013199D02*
X010800Y013199D01*
X010800Y013297D02*
X011930Y013297D01*
X011930Y013396D02*
X010800Y013396D01*
X010800Y013494D02*
X011930Y013494D01*
X011930Y013593D02*
X010800Y013593D01*
X010800Y013691D02*
X011930Y013691D01*
X011930Y013790D02*
X010800Y013790D01*
X010800Y013888D02*
X011930Y013888D01*
X011930Y013987D02*
X010800Y013987D01*
X010800Y014085D02*
X011930Y014085D01*
X011930Y014184D02*
X010800Y014184D01*
X010800Y014282D02*
X011930Y014282D01*
X011930Y014381D02*
X010800Y014381D01*
X010800Y014479D02*
X011930Y014479D01*
X011930Y014578D02*
X010800Y014578D01*
X010800Y014676D02*
X011930Y014676D01*
X011930Y014775D02*
X010800Y014775D01*
X010800Y014873D02*
X011930Y014873D01*
X011930Y014972D02*
X010800Y014972D01*
X010800Y015070D02*
X011930Y015070D01*
X011930Y015169D02*
X010800Y015169D01*
X010800Y015267D02*
X011930Y015267D01*
X011930Y015366D02*
X010800Y015366D01*
X010800Y015464D02*
X011930Y015464D01*
X011930Y015563D02*
X010800Y015563D01*
X010800Y015661D02*
X011930Y015661D01*
X011930Y015760D02*
X010800Y015760D01*
X010800Y015858D02*
X011930Y015858D01*
X011930Y015957D02*
X010776Y015957D01*
X010699Y016055D02*
X011930Y016055D01*
X011930Y016154D02*
X010600Y016154D01*
X010502Y016252D02*
X011930Y016252D01*
X011930Y016351D02*
X010403Y016351D01*
X010305Y016449D02*
X011930Y016449D01*
X011930Y016548D02*
X010206Y016548D01*
X010108Y016646D02*
X011930Y016646D01*
X011930Y016745D02*
X010009Y016745D01*
X009867Y016843D02*
X011930Y016843D01*
X011930Y016942D02*
X009041Y016942D01*
X008857Y017040D02*
X011930Y017040D01*
X011930Y017139D02*
X008395Y017139D01*
X008395Y017237D02*
X011930Y017237D01*
X011930Y017336D02*
X008395Y017336D01*
X008395Y017434D02*
X011930Y017434D01*
X011930Y017533D02*
X008395Y017533D01*
X008395Y017631D02*
X011930Y017631D01*
X011930Y017730D02*
X008395Y017730D01*
X008395Y017828D02*
X011930Y017828D01*
X011930Y017927D02*
X008395Y017927D01*
X008395Y018025D02*
X011930Y018025D01*
X011930Y018124D02*
X008395Y018124D01*
X008395Y018222D02*
X011930Y018222D01*
X011930Y018321D02*
X008395Y018321D01*
X008395Y018419D02*
X011930Y018419D01*
X011930Y018518D02*
X008395Y018518D01*
X008395Y018616D02*
X011930Y018616D01*
X011930Y018715D02*
X011212Y018715D01*
X011117Y018669D02*
X011418Y018814D01*
X011626Y019075D01*
X011700Y019400D01*
X011626Y019725D01*
X011626Y019725D01*
X011418Y019986D01*
X011117Y020131D01*
X010783Y020131D01*
X010482Y019986D01*
X010274Y019725D01*
X010200Y019400D01*
X010200Y019400D01*
X010274Y019075D01*
X010274Y019075D01*
X010482Y018814D01*
X010783Y018669D01*
X011117Y018669D01*
X011416Y018813D02*
X011930Y018813D01*
X011930Y018912D02*
X011496Y018912D01*
X011574Y019010D02*
X011930Y019010D01*
X011930Y019109D02*
X011633Y019109D01*
X011626Y019075D02*
X011626Y019075D01*
X011656Y019207D02*
X011930Y019207D01*
X011930Y019306D02*
X011678Y019306D01*
X011699Y019404D02*
X011930Y019404D01*
X011930Y019503D02*
X011677Y019503D01*
X011654Y019601D02*
X011930Y019601D01*
X011930Y019700D02*
X011632Y019700D01*
X011568Y019798D02*
X011930Y019798D01*
X011930Y019897D02*
X011489Y019897D01*
X011418Y019986D02*
X011418Y019986D01*
X011400Y019995D02*
X011930Y019995D01*
X011930Y020094D02*
X011195Y020094D01*
X010705Y020094D02*
X001595Y020094D01*
X001517Y020131D02*
X001183Y020131D01*
X000882Y019986D01*
X000674Y019725D01*
X000600Y019400D01*
X000600Y019400D01*
X000674Y019075D01*
X000674Y019075D01*
X000882Y018814D01*
X001183Y018669D01*
X001517Y018669D01*
X001818Y018814D01*
X002026Y019075D01*
X002100Y019400D01*
X002026Y019725D01*
X002026Y019725D01*
X001818Y019986D01*
X001517Y020131D01*
X001800Y019995D02*
X010500Y019995D01*
X010482Y019986D02*
X010482Y019986D01*
X010482Y019986D01*
X010411Y019897D02*
X001889Y019897D01*
X001818Y019986D02*
X001818Y019986D01*
X001968Y019798D02*
X010332Y019798D01*
X010274Y019725D02*
X010274Y019725D01*
X010268Y019700D02*
X002032Y019700D01*
X002054Y019601D02*
X010246Y019601D01*
X010223Y019503D02*
X008323Y019503D01*
X008395Y019404D02*
X010201Y019404D01*
X010222Y019306D02*
X008395Y019306D01*
X008395Y019207D02*
X010244Y019207D01*
X010267Y019109D02*
X008395Y019109D01*
X008395Y019010D02*
X010326Y019010D01*
X010404Y018912D02*
X008395Y018912D01*
X008395Y018813D02*
X010484Y018813D01*
X010482Y018814D02*
X010482Y018814D01*
X010688Y018715D02*
X008395Y018715D01*
X008395Y017040D02*
X008643Y017040D01*
X008459Y016942D02*
X008395Y016942D01*
X011418Y018814D02*
X011418Y018814D01*
X011418Y018814D01*
X011930Y020192D02*
X000370Y020192D01*
X000370Y020094D02*
X001105Y020094D01*
X000900Y019995D02*
X000370Y019995D01*
X000370Y019897D02*
X000811Y019897D01*
X000882Y019986D02*
X000882Y019986D01*
X000882Y019986D01*
X000732Y019798D02*
X000370Y019798D01*
X000370Y019700D02*
X000668Y019700D01*
X000674Y019725D02*
X000674Y019725D01*
X000646Y019601D02*
X000370Y019601D01*
X000370Y019503D02*
X000623Y019503D01*
X000601Y019404D02*
X000370Y019404D01*
X000370Y019306D02*
X000622Y019306D01*
X000644Y019207D02*
X000370Y019207D01*
X000370Y019109D02*
X000667Y019109D01*
X000726Y019010D02*
X000370Y019010D01*
X000370Y018912D02*
X000804Y018912D01*
X000882Y018814D02*
X000882Y018814D01*
X000884Y018813D02*
X000370Y018813D01*
X000370Y018715D02*
X001088Y018715D01*
X001612Y018715D02*
X004155Y018715D01*
X004155Y018813D02*
X001816Y018813D01*
X001818Y018814D02*
X001818Y018814D01*
X001818Y018814D01*
X001896Y018912D02*
X004155Y018912D01*
X004155Y019010D02*
X001974Y019010D01*
X002026Y019075D02*
X002026Y019075D01*
X002033Y019109D02*
X004155Y019109D01*
X004155Y019207D02*
X002056Y019207D01*
X002078Y019306D02*
X004155Y019306D01*
X004155Y019404D02*
X002099Y019404D01*
X002077Y019503D02*
X004227Y019503D01*
X004155Y018616D02*
X000370Y018616D01*
X000370Y018518D02*
X004155Y018518D01*
X004155Y018419D02*
X000370Y018419D01*
X000370Y018321D02*
X004155Y018321D01*
X004155Y018222D02*
X000370Y018222D01*
X000370Y018124D02*
X004155Y018124D01*
X004155Y018025D02*
X000370Y018025D01*
X000370Y017927D02*
X004155Y017927D01*
X004155Y017828D02*
X000370Y017828D01*
X000370Y017730D02*
X004155Y017730D01*
X004155Y017631D02*
X000370Y017631D01*
X000370Y017533D02*
X004155Y017533D01*
X004155Y017434D02*
X000370Y017434D01*
X000370Y017336D02*
X004155Y017336D01*
X004155Y017237D02*
X000370Y017237D01*
X000370Y017139D02*
X004155Y017139D01*
X004155Y017040D02*
X000370Y017040D01*
X000370Y016942D02*
X004155Y016942D01*
X004155Y016843D02*
X003970Y016843D01*
X004088Y016745D02*
X004155Y016745D01*
X004153Y016646D02*
X004155Y016646D01*
X003530Y016843D02*
X000370Y016843D01*
X000370Y016745D02*
X003412Y016745D01*
X003347Y016646D02*
X000370Y016646D01*
X000370Y016548D02*
X003306Y016548D01*
X003303Y016449D02*
X000370Y016449D01*
X000370Y016351D02*
X003307Y016351D01*
X003348Y016252D02*
X000370Y016252D01*
X000370Y016154D02*
X003414Y016154D01*
X003534Y016055D02*
X000370Y016055D01*
X000370Y015957D02*
X002696Y015957D01*
X002653Y015858D02*
X000370Y015858D01*
X000370Y015760D02*
X002653Y015760D01*
X002653Y015563D02*
X000370Y015563D01*
X000370Y015661D02*
X002952Y015661D01*
X003048Y015661D02*
X003721Y015661D01*
X003721Y015679D02*
X003721Y015621D01*
X003323Y015621D01*
X003323Y015616D01*
X003327Y015586D01*
X003048Y015586D01*
X003048Y015683D01*
X003323Y015683D01*
X003323Y015679D01*
X003721Y015679D01*
X003452Y015957D02*
X003304Y015957D01*
X003347Y015858D02*
X003376Y015858D01*
X003048Y015858D02*
X002952Y015858D01*
X002952Y015760D02*
X003048Y015760D01*
X003048Y015957D02*
X002952Y015957D01*
X002653Y015464D02*
X000370Y015464D01*
X000370Y015366D02*
X002662Y015366D01*
X002648Y015267D02*
X000370Y015267D01*
X000370Y015169D02*
X002633Y015169D01*
X002633Y015070D02*
X000370Y015070D01*
X000370Y014972D02*
X002633Y014972D01*
X002633Y014873D02*
X000370Y014873D01*
X000370Y014775D02*
X002633Y014775D01*
X002636Y014676D02*
X000370Y014676D01*
X000370Y014578D02*
X002700Y014578D01*
X002700Y014479D02*
X000370Y014479D01*
X000370Y014381D02*
X002700Y014381D01*
X002700Y014282D02*
X000370Y014282D01*
X000370Y014184D02*
X002700Y014184D01*
X002700Y014085D02*
X000370Y014085D01*
X000370Y013987D02*
X002700Y013987D01*
X002700Y013888D02*
X000370Y013888D01*
X000370Y013790D02*
X002700Y013790D01*
X002700Y013691D02*
X000370Y013691D01*
X000370Y013593D02*
X002700Y013593D01*
X002700Y013494D02*
X000370Y013494D01*
X000370Y013396D02*
X002700Y013396D01*
X002700Y013297D02*
X000370Y013297D01*
X000370Y013199D02*
X002700Y013199D01*
X002700Y013100D02*
X000370Y013100D01*
X000370Y013002D02*
X002700Y013002D01*
X002700Y012903D02*
X000370Y012903D01*
X000370Y012805D02*
X002700Y012805D01*
X002700Y012706D02*
X000370Y012706D01*
X000370Y012608D02*
X002700Y012608D01*
X002700Y012509D02*
X000370Y012509D01*
X000370Y012411D02*
X002700Y012411D01*
X002700Y012312D02*
X000370Y012312D01*
X000370Y012214D02*
X002700Y012214D01*
X002700Y012115D02*
X000370Y012115D01*
X000370Y012017D02*
X002700Y012017D01*
X002700Y011918D02*
X000370Y011918D01*
X000370Y011820D02*
X002700Y011820D01*
X002700Y011721D02*
X000370Y011721D01*
X000370Y011623D02*
X002700Y011623D01*
X002700Y011524D02*
X000370Y011524D01*
X000370Y011426D02*
X002700Y011426D01*
X002700Y011327D02*
X000370Y011327D01*
X000370Y011229D02*
X002700Y011229D01*
X002700Y011130D02*
X000370Y011130D01*
X000370Y011032D02*
X002700Y011032D01*
X002700Y010933D02*
X000370Y010933D01*
X000370Y010835D02*
X002700Y010835D01*
X002700Y010736D02*
X000370Y010736D01*
X000370Y010638D02*
X002700Y010638D01*
X002700Y010539D02*
X000370Y010539D01*
X000370Y010441D02*
X002700Y010441D01*
X002700Y010342D02*
X000370Y010342D01*
X000370Y010244D02*
X002700Y010244D01*
X002700Y010145D02*
X000370Y010145D01*
X000370Y010047D02*
X002700Y010047D01*
X002700Y009948D02*
X000370Y009948D01*
X000370Y009850D02*
X002700Y009850D01*
X002700Y009751D02*
X000370Y009751D01*
X000370Y009653D02*
X002700Y009653D01*
X002700Y009554D02*
X000370Y009554D01*
X000370Y009456D02*
X002700Y009456D01*
X002700Y009357D02*
X000370Y009357D01*
X000370Y009259D02*
X002700Y009259D01*
X002700Y009160D02*
X000370Y009160D01*
X000370Y009062D02*
X002700Y009062D01*
X002700Y008963D02*
X000370Y008963D01*
X000370Y008865D02*
X002700Y008865D01*
X002700Y008766D02*
X000370Y008766D01*
X000370Y008668D02*
X002700Y008668D01*
X002700Y008569D02*
X000370Y008569D01*
X000370Y008471D02*
X002700Y008471D01*
X002700Y008372D02*
X000370Y008372D01*
X000370Y008274D02*
X002700Y008274D01*
X002700Y008175D02*
X000370Y008175D01*
X000370Y008077D02*
X002700Y008077D01*
X002700Y007978D02*
X000370Y007978D01*
X000370Y007880D02*
X002700Y007880D01*
X002700Y007781D02*
X000370Y007781D01*
X000370Y007683D02*
X002700Y007683D01*
X002700Y007584D02*
X000370Y007584D01*
X000370Y007486D02*
X002700Y007486D01*
X002700Y007387D02*
X000370Y007387D01*
X000370Y007289D02*
X002700Y007289D01*
X002700Y007190D02*
X000370Y007190D01*
X000370Y007092D02*
X002700Y007092D01*
X002700Y006993D02*
X000370Y006993D01*
X000370Y006895D02*
X002700Y006895D01*
X002700Y006796D02*
X000370Y006796D01*
X000370Y006698D02*
X002700Y006698D01*
X002700Y006599D02*
X000370Y006599D01*
X000370Y006501D02*
X002700Y006501D01*
X002700Y006402D02*
X000370Y006402D01*
X000370Y006304D02*
X001653Y006304D01*
X001630Y006205D02*
X000370Y006205D01*
X000370Y006107D02*
X001630Y006107D01*
X001630Y006008D02*
X000370Y006008D01*
X000370Y005910D02*
X001630Y005910D01*
X001630Y005811D02*
X000370Y005811D01*
X000370Y005713D02*
X001630Y005713D01*
X001630Y005614D02*
X000370Y005614D01*
X000370Y005516D02*
X001630Y005516D01*
X001630Y005417D02*
X000370Y005417D01*
X000370Y005319D02*
X001630Y005319D01*
X001670Y005220D02*
X000370Y005220D01*
X000370Y005122D02*
X001750Y005122D01*
X001750Y005023D02*
X000370Y005023D01*
X000370Y004925D02*
X001750Y004925D01*
X001750Y004826D02*
X000370Y004826D01*
X000370Y004728D02*
X001750Y004728D01*
X001750Y004629D02*
X000370Y004629D01*
X000370Y004531D02*
X001750Y004531D01*
X001750Y004432D02*
X000370Y004432D01*
X000370Y004334D02*
X001750Y004334D01*
X001750Y004235D02*
X000370Y004235D01*
X000370Y004137D02*
X001750Y004137D01*
X001750Y004038D02*
X000370Y004038D01*
X000370Y003940D02*
X001750Y003940D01*
X001750Y003841D02*
X000370Y003841D01*
X000370Y003743D02*
X001750Y003743D01*
X001750Y003644D02*
X000370Y003644D01*
X000370Y003546D02*
X001750Y003546D01*
X001750Y003447D02*
X000370Y003447D01*
X000370Y003349D02*
X001750Y003349D01*
X001750Y003250D02*
X000370Y003250D01*
X000370Y003151D02*
X001750Y003151D01*
X001750Y003053D02*
X000370Y003053D01*
X000370Y002954D02*
X001750Y002954D01*
X001750Y002856D02*
X000370Y002856D01*
X000370Y002757D02*
X001750Y002757D01*
X001750Y002659D02*
X000370Y002659D01*
X000370Y002560D02*
X001750Y002560D01*
X001787Y002462D02*
X000370Y002462D01*
X000370Y002363D02*
X001883Y002363D01*
X001981Y002265D02*
X000370Y002265D01*
X000370Y002166D02*
X002080Y002166D01*
X002178Y002068D02*
X001654Y002068D01*
X001517Y002134D02*
X001183Y002134D01*
X000881Y001988D01*
X000672Y001726D01*
X000598Y001400D01*
X000672Y001074D01*
X000881Y000812D01*
X001183Y000666D01*
X001517Y000666D01*
X001819Y000812D01*
X002028Y001074D01*
X002102Y001400D01*
X002028Y001726D01*
X002028Y001726D01*
X001819Y001988D01*
X001517Y002134D01*
X001819Y001988D02*
X001819Y001988D01*
X001834Y001969D02*
X002277Y001969D01*
X002375Y001871D02*
X001913Y001871D01*
X001991Y001772D02*
X002474Y001772D01*
X002572Y001674D02*
X002040Y001674D01*
X002062Y001575D02*
X002671Y001575D01*
X002769Y001477D02*
X002085Y001477D01*
X002098Y001378D02*
X002868Y001378D01*
X002966Y001280D02*
X002075Y001280D01*
X002053Y001181D02*
X003065Y001181D01*
X003171Y001083D02*
X002030Y001083D01*
X002028Y001074D02*
X002028Y001074D01*
X001957Y000984D02*
X010343Y000984D01*
X010270Y001083D02*
X007029Y001083D01*
X007135Y001181D02*
X010247Y001181D01*
X010225Y001280D02*
X007234Y001280D01*
X007332Y001378D02*
X010202Y001378D01*
X010198Y001400D02*
X010198Y001400D01*
X010215Y001477D02*
X008020Y001477D01*
X008118Y001575D02*
X010238Y001575D01*
X010260Y001674D02*
X008217Y001674D01*
X007580Y001477D02*
X007431Y001477D01*
X005507Y001550D02*
X005065Y001550D01*
X005270Y001755D01*
X005270Y001900D01*
X004850Y001900D01*
X004850Y002000D01*
X005270Y002000D01*
X005270Y002126D01*
X005310Y002086D01*
X005310Y001747D01*
X005507Y001550D01*
X005482Y001575D02*
X005090Y001575D01*
X005189Y001674D02*
X005383Y001674D01*
X005310Y001772D02*
X005270Y001772D01*
X005270Y001871D02*
X005310Y001871D01*
X005310Y001969D02*
X004850Y001969D01*
X004750Y001969D02*
X002984Y001969D01*
X003083Y001871D02*
X004330Y001871D01*
X004330Y001900D02*
X004330Y001755D01*
X004535Y001550D01*
X003404Y001550D01*
X002250Y002704D01*
X002250Y002727D01*
X003729Y002727D01*
X003801Y002799D01*
X003838Y002708D01*
X004238Y002308D01*
X004308Y002238D01*
X004390Y002204D01*
X004330Y002145D01*
X004330Y002000D01*
X004750Y002000D01*
X004750Y001900D01*
X004330Y001900D01*
X004330Y001772D02*
X003181Y001772D01*
X003280Y001674D02*
X004411Y001674D01*
X004510Y001575D02*
X003378Y001575D01*
X002886Y002068D02*
X004330Y002068D01*
X004352Y002166D02*
X002787Y002166D01*
X002689Y002265D02*
X004281Y002265D01*
X004183Y002363D02*
X002590Y002363D01*
X002492Y002462D02*
X004084Y002462D01*
X003986Y002560D02*
X002393Y002560D01*
X002295Y002659D02*
X003887Y002659D01*
X003818Y002757D02*
X003760Y002757D01*
X004300Y002954D02*
X004300Y003850D01*
X004262Y003942D01*
X004192Y004012D01*
X004192Y004012D01*
X003200Y005004D01*
X003200Y005160D01*
X003260Y005160D01*
X003360Y005260D01*
X003360Y006280D01*
X003260Y006380D01*
X003200Y006380D01*
X003200Y014579D01*
X003267Y014579D01*
X003346Y014657D01*
X003371Y014597D01*
X003497Y014471D01*
X003546Y014450D01*
X003497Y014429D01*
X003371Y014303D01*
X003303Y014139D01*
X003303Y013961D01*
X003371Y013797D01*
X003450Y013717D01*
X003450Y007300D01*
X003488Y007208D01*
X003558Y007138D01*
X004450Y006246D01*
X004450Y004000D01*
X004488Y003908D01*
X004956Y003440D01*
X004597Y003440D01*
X004310Y003153D01*
X004310Y002944D01*
X004300Y002954D01*
X004310Y002954D01*
X004300Y003053D02*
X004310Y003053D01*
X004300Y003151D02*
X004310Y003151D01*
X004300Y003250D02*
X004407Y003250D01*
X004506Y003349D02*
X004300Y003349D01*
X004300Y003447D02*
X004949Y003447D01*
X004851Y003546D02*
X004300Y003546D01*
X004300Y003644D02*
X004752Y003644D01*
X004654Y003743D02*
X004300Y003743D01*
X004300Y003841D02*
X004555Y003841D01*
X004475Y003940D02*
X004263Y003940D01*
X004166Y004038D02*
X004450Y004038D01*
X004450Y004137D02*
X004067Y004137D01*
X003969Y004235D02*
X004450Y004235D01*
X004450Y004334D02*
X003870Y004334D01*
X003772Y004432D02*
X004450Y004432D01*
X004450Y004531D02*
X003673Y004531D01*
X003575Y004629D02*
X004450Y004629D01*
X004450Y004728D02*
X003476Y004728D01*
X003378Y004826D02*
X004450Y004826D01*
X004450Y004925D02*
X003279Y004925D01*
X003200Y005023D02*
X004450Y005023D01*
X004450Y005122D02*
X003200Y005122D01*
X003320Y005220D02*
X003518Y005220D01*
X003528Y005210D02*
X003562Y005190D01*
X003600Y005180D01*
X003810Y005180D01*
X003810Y005720D01*
X003470Y005720D01*
X003470Y005310D01*
X003480Y005272D01*
X003500Y005238D01*
X003528Y005210D01*
X003470Y005319D02*
X003360Y005319D01*
X003360Y005417D02*
X003470Y005417D01*
X003470Y005516D02*
X003360Y005516D01*
X003360Y005614D02*
X003470Y005614D01*
X003470Y005713D02*
X003360Y005713D01*
X003360Y005811D02*
X003810Y005811D01*
X003810Y005820D02*
X003810Y005720D01*
X003910Y005720D01*
X003910Y005820D01*
X003810Y005820D01*
X003810Y006360D01*
X003600Y006360D01*
X003562Y006350D01*
X003528Y006330D01*
X003500Y006302D01*
X003480Y006268D01*
X003470Y006230D01*
X003470Y005820D01*
X003810Y005820D01*
X003810Y005910D02*
X003910Y005910D01*
X003910Y005820D02*
X003910Y006360D01*
X004120Y006360D01*
X004158Y006350D01*
X004192Y006330D01*
X004220Y006302D01*
X004240Y006268D01*
X004250Y006230D01*
X004250Y005820D01*
X003910Y005820D01*
X003910Y005811D02*
X004450Y005811D01*
X004450Y005713D02*
X004250Y005713D01*
X004250Y005720D02*
X003910Y005720D01*
X003910Y005180D01*
X004120Y005180D01*
X004158Y005190D01*
X004192Y005210D01*
X004220Y005238D01*
X004240Y005272D01*
X004250Y005310D01*
X004250Y005720D01*
X004250Y005614D02*
X004450Y005614D01*
X004450Y005516D02*
X004250Y005516D01*
X004250Y005417D02*
X004450Y005417D01*
X004450Y005319D02*
X004250Y005319D01*
X004202Y005220D02*
X004450Y005220D01*
X004450Y005910D02*
X004250Y005910D01*
X004250Y006008D02*
X004450Y006008D01*
X004450Y006107D02*
X004250Y006107D01*
X004250Y006205D02*
X004450Y006205D01*
X004393Y006304D02*
X004219Y006304D01*
X004294Y006402D02*
X003200Y006402D01*
X003200Y006501D02*
X004196Y006501D01*
X004097Y006599D02*
X003200Y006599D01*
X003200Y006698D02*
X003999Y006698D01*
X003900Y006796D02*
X003200Y006796D01*
X003200Y006895D02*
X003802Y006895D01*
X003703Y006993D02*
X003200Y006993D01*
X003200Y007092D02*
X003605Y007092D01*
X003506Y007190D02*
X003200Y007190D01*
X003200Y007289D02*
X003455Y007289D01*
X003450Y007387D02*
X003200Y007387D01*
X003200Y007486D02*
X003450Y007486D01*
X003450Y007584D02*
X003200Y007584D01*
X003200Y007683D02*
X003450Y007683D01*
X003450Y007781D02*
X003200Y007781D01*
X003200Y007880D02*
X003450Y007880D01*
X003450Y007978D02*
X003200Y007978D01*
X003200Y008077D02*
X003450Y008077D01*
X003450Y008175D02*
X003200Y008175D01*
X003200Y008274D02*
X003450Y008274D01*
X003450Y008372D02*
X003200Y008372D01*
X003200Y008471D02*
X003450Y008471D01*
X003450Y008569D02*
X003200Y008569D01*
X003200Y008668D02*
X003450Y008668D01*
X003450Y008766D02*
X003200Y008766D01*
X003200Y008865D02*
X003450Y008865D01*
X003450Y008963D02*
X003200Y008963D01*
X003200Y009062D02*
X003450Y009062D01*
X003450Y009160D02*
X003200Y009160D01*
X003200Y009259D02*
X003450Y009259D01*
X003450Y009357D02*
X003200Y009357D01*
X003200Y009456D02*
X003450Y009456D01*
X003450Y009554D02*
X003200Y009554D01*
X003200Y009653D02*
X003450Y009653D01*
X003450Y009751D02*
X003200Y009751D01*
X003200Y009850D02*
X003450Y009850D01*
X003450Y009948D02*
X003200Y009948D01*
X003200Y010047D02*
X003450Y010047D01*
X003450Y010145D02*
X003200Y010145D01*
X003200Y010244D02*
X003450Y010244D01*
X003450Y010342D02*
X003200Y010342D01*
X003200Y010441D02*
X003450Y010441D01*
X003450Y010539D02*
X003200Y010539D01*
X003200Y010638D02*
X003450Y010638D01*
X003450Y010736D02*
X003200Y010736D01*
X003200Y010835D02*
X003450Y010835D01*
X003450Y010933D02*
X003200Y010933D01*
X003200Y011032D02*
X003450Y011032D01*
X003450Y011130D02*
X003200Y011130D01*
X003200Y011229D02*
X003450Y011229D01*
X003450Y011327D02*
X003200Y011327D01*
X003200Y011426D02*
X003450Y011426D01*
X003450Y011524D02*
X003200Y011524D01*
X003200Y011623D02*
X003450Y011623D01*
X003450Y011721D02*
X003200Y011721D01*
X003200Y011820D02*
X003450Y011820D01*
X003450Y011918D02*
X003200Y011918D01*
X003200Y012017D02*
X003450Y012017D01*
X003450Y012115D02*
X003200Y012115D01*
X003200Y012214D02*
X003450Y012214D01*
X003450Y012312D02*
X003200Y012312D01*
X003200Y012411D02*
X003450Y012411D01*
X003450Y012509D02*
X003200Y012509D01*
X003200Y012608D02*
X003450Y012608D01*
X003450Y012706D02*
X003200Y012706D01*
X003200Y012805D02*
X003450Y012805D01*
X003450Y012903D02*
X003200Y012903D01*
X003200Y013002D02*
X003450Y013002D01*
X003450Y013100D02*
X003200Y013100D01*
X003200Y013199D02*
X003450Y013199D01*
X003450Y013297D02*
X003200Y013297D01*
X003200Y013396D02*
X003450Y013396D01*
X003450Y013494D02*
X003200Y013494D01*
X003200Y013593D02*
X003450Y013593D01*
X003450Y013691D02*
X003200Y013691D01*
X003200Y013790D02*
X003378Y013790D01*
X003333Y013888D02*
X003200Y013888D01*
X003200Y013987D02*
X003303Y013987D01*
X003303Y014085D02*
X003200Y014085D01*
X003200Y014184D02*
X003321Y014184D01*
X003362Y014282D02*
X003200Y014282D01*
X003200Y014381D02*
X003448Y014381D01*
X003488Y014479D02*
X003200Y014479D01*
X003200Y014578D02*
X003390Y014578D01*
X000370Y020291D02*
X011930Y020291D01*
X003910Y006304D02*
X003810Y006304D01*
X003810Y006205D02*
X003910Y006205D01*
X003910Y006107D02*
X003810Y006107D01*
X003810Y006008D02*
X003910Y006008D01*
X003910Y005713D02*
X003810Y005713D01*
X003810Y005614D02*
X003910Y005614D01*
X003910Y005516D02*
X003810Y005516D01*
X003810Y005417D02*
X003910Y005417D01*
X003910Y005319D02*
X003810Y005319D01*
X003810Y005220D02*
X003910Y005220D01*
X003470Y005910D02*
X003360Y005910D01*
X003360Y006008D02*
X003470Y006008D01*
X003470Y006107D02*
X003360Y006107D01*
X003360Y006205D02*
X003470Y006205D01*
X003501Y006304D02*
X003337Y006304D01*
X002700Y005122D02*
X002250Y005122D01*
X002250Y005023D02*
X002700Y005023D01*
X002700Y004925D02*
X002250Y004925D01*
X002250Y004826D02*
X002710Y004826D01*
X002769Y004728D02*
X002250Y004728D01*
X002250Y004629D02*
X002867Y004629D01*
X002966Y004531D02*
X002250Y004531D01*
X002250Y004432D02*
X003064Y004432D01*
X003163Y004334D02*
X002250Y004334D01*
X002250Y004235D02*
X003261Y004235D01*
X003360Y004137D02*
X002250Y004137D01*
X002250Y004038D02*
X003458Y004038D01*
X003557Y003940D02*
X002250Y003940D01*
X002410Y005220D02*
X002580Y005220D01*
X002540Y005319D02*
X002450Y005319D01*
X002450Y005417D02*
X002540Y005417D01*
X002540Y005516D02*
X002450Y005516D01*
X002450Y005614D02*
X002540Y005614D01*
X002540Y005713D02*
X002450Y005713D01*
X002450Y005811D02*
X002540Y005811D01*
X002540Y005910D02*
X002450Y005910D01*
X002450Y006008D02*
X002540Y006008D01*
X002540Y006107D02*
X002450Y006107D01*
X002450Y006205D02*
X002540Y006205D01*
X002563Y006304D02*
X002427Y006304D01*
X001046Y002068D02*
X000370Y002068D01*
X000370Y001969D02*
X000866Y001969D01*
X000881Y001988D02*
X000881Y001988D01*
X000881Y001988D01*
X000787Y001871D02*
X000370Y001871D01*
X000370Y001772D02*
X000709Y001772D01*
X000672Y001726D02*
X000672Y001726D01*
X000660Y001674D02*
X000370Y001674D01*
X000370Y001575D02*
X000638Y001575D01*
X000615Y001477D02*
X000370Y001477D01*
X000370Y001378D02*
X000602Y001378D01*
X000625Y001280D02*
X000370Y001280D01*
X000370Y001181D02*
X000647Y001181D01*
X000670Y001083D02*
X000370Y001083D01*
X000370Y000984D02*
X000743Y000984D01*
X000672Y001074D02*
X000672Y001074D01*
X000822Y000886D02*
X000370Y000886D01*
X000370Y000787D02*
X000931Y000787D01*
X000881Y000812D02*
X000881Y000812D01*
X001136Y000689D02*
X000370Y000689D01*
X001564Y000689D02*
X010736Y000689D01*
X010531Y000787D02*
X001769Y000787D01*
X001819Y000812D02*
X001819Y000812D01*
X001819Y000812D01*
X001878Y000886D02*
X010422Y000886D01*
X010481Y000812D02*
X010481Y000812D01*
X010272Y001726D02*
X010272Y001726D01*
X005310Y002068D02*
X005270Y002068D01*
D16*
X003900Y004700D03*
X002000Y015650D03*
D17*
X002950Y014915D02*
X003000Y014965D01*
X003635Y014965D01*
X003750Y014850D01*
X003750Y014050D02*
X003700Y014000D01*
X003700Y007350D01*
X004700Y006350D01*
X004700Y004050D01*
X005800Y002950D01*
X006300Y003400D02*
X006300Y002450D01*
X005800Y001950D01*
X005300Y002450D01*
X004450Y002450D01*
X004050Y002850D01*
X004050Y003800D01*
X002950Y004900D01*
X002950Y005770D01*
X002950Y014915D01*
X002040Y005770D02*
X002000Y005730D01*
X002000Y002600D01*
X003300Y001300D01*
X006900Y001300D01*
X007300Y001700D01*
X007300Y002450D01*
X007800Y002950D01*
X007800Y001950D02*
X008800Y001950D01*
X010550Y003700D01*
X010550Y015850D01*
X009800Y016600D01*
X008750Y016600D01*
X008750Y015000D02*
X008800Y014950D01*
X009465Y014950D01*
X010135Y014950D02*
X010135Y009085D01*
X005750Y004700D01*
X006750Y003850D02*
X006300Y003400D01*
X006750Y003850D02*
X006750Y004700D01*
M02*
