G75*
%MOIN*%
%OFA0B0*%
%FSLAX24Y24*%
%IPPOS*%
%LPD*%
%AMOC8*
5,1,8,0,0,1.08239X$1,22.5*
%
%ADD10C,0.0555*%
%ADD11OC8,0.0640*%
%ADD12C,0.0100*%
%ADD13C,0.0436*%
%ADD14C,0.0160*%
D10*
X005750Y004700D03*
X006750Y004700D03*
X003750Y014050D03*
X003750Y014850D03*
X003750Y015650D03*
X003750Y016450D03*
X008750Y016600D03*
X008750Y015800D03*
X008750Y015000D03*
X008750Y014200D03*
D11*
X007800Y002950D03*
X007800Y001950D03*
X006800Y001950D03*
X006800Y002950D03*
X005800Y002950D03*
X005800Y001950D03*
X004800Y001950D03*
X004800Y002950D03*
D12*
X000370Y000370D02*
X000370Y020380D01*
X011930Y020380D01*
X011930Y000370D01*
X000370Y000370D01*
X000370Y000393D02*
X011930Y000393D01*
X011930Y000492D02*
X000370Y000492D01*
X000370Y000590D02*
X011930Y000590D01*
X011930Y000689D02*
X011164Y000689D01*
X011117Y000666D02*
X011419Y000812D01*
X011628Y001074D01*
X011702Y001400D01*
X011628Y001726D01*
X011628Y001726D01*
X011419Y001988D01*
X011117Y002134D01*
X010783Y002134D01*
X010481Y001988D01*
X010272Y001726D01*
X010198Y001400D01*
X010272Y001074D01*
X010272Y001074D01*
X010481Y000812D01*
X010783Y000666D01*
X011117Y000666D01*
X011369Y000787D02*
X011930Y000787D01*
X011930Y000886D02*
X011478Y000886D01*
X011419Y000812D02*
X011419Y000812D01*
X011419Y000812D01*
X011557Y000984D02*
X011930Y000984D01*
X011930Y001083D02*
X011630Y001083D01*
X011628Y001074D02*
X011628Y001074D01*
X011653Y001181D02*
X011930Y001181D01*
X011930Y001280D02*
X011675Y001280D01*
X011698Y001378D02*
X011930Y001378D01*
X011930Y001477D02*
X011685Y001477D01*
X011662Y001575D02*
X011930Y001575D01*
X011930Y001674D02*
X011640Y001674D01*
X011591Y001772D02*
X011930Y001772D01*
X011930Y001871D02*
X011513Y001871D01*
X011434Y001969D02*
X011930Y001969D01*
X011930Y002068D02*
X011254Y002068D01*
X011419Y001988D02*
X011419Y001988D01*
X011930Y002166D02*
X008276Y002166D01*
X008290Y002153D02*
X008230Y002213D01*
X008292Y002238D01*
X008362Y002308D01*
X009462Y003408D01*
X009500Y003500D01*
X009500Y015350D01*
X009462Y015442D01*
X009196Y015708D01*
X009197Y015711D01*
X009197Y015889D01*
X009129Y016053D01*
X009003Y016179D01*
X008954Y016200D01*
X009003Y016221D01*
X009129Y016347D01*
X009197Y016511D01*
X009197Y016689D01*
X009129Y016853D01*
X009003Y016979D01*
X008839Y017047D01*
X008661Y017047D01*
X008497Y016979D01*
X008395Y016878D01*
X008395Y019431D01*
X008281Y019545D01*
X004269Y019545D01*
X004155Y019431D01*
X004155Y016642D01*
X004129Y016703D01*
X004003Y016829D01*
X003839Y016897D01*
X003661Y016897D01*
X003497Y016829D01*
X003371Y016703D01*
X003303Y016539D01*
X003303Y016361D01*
X003304Y016358D01*
X002538Y015592D01*
X002500Y015500D01*
X002500Y004950D01*
X002538Y004858D01*
X004310Y003086D01*
X004310Y002747D01*
X004597Y002460D01*
X005003Y002460D01*
X005290Y002747D01*
X005290Y003153D01*
X005003Y003440D01*
X004664Y003440D01*
X003000Y005104D01*
X003000Y015346D01*
X003332Y015679D01*
X003721Y015679D01*
X003721Y015621D01*
X003323Y015621D01*
X003323Y015616D01*
X003333Y015550D01*
X003354Y015486D01*
X003384Y015426D01*
X003424Y015372D01*
X003472Y015324D01*
X003526Y015284D01*
X003572Y015261D01*
X003497Y015229D01*
X003371Y015103D01*
X003303Y014939D01*
X003303Y014761D01*
X003371Y014597D01*
X003497Y014471D01*
X003546Y014450D01*
X003497Y014429D01*
X003371Y014303D01*
X003303Y014139D01*
X003303Y013961D01*
X003371Y013797D01*
X003497Y013671D01*
X003661Y013603D01*
X003839Y013603D01*
X004003Y013671D01*
X004129Y013797D01*
X004155Y013858D01*
X004155Y008219D01*
X004269Y008105D01*
X008281Y008105D01*
X008395Y008219D01*
X008395Y013922D01*
X008497Y013821D01*
X008500Y013819D01*
X008500Y005004D01*
X006936Y003440D01*
X006597Y003440D01*
X006310Y003153D01*
X006310Y002747D01*
X006597Y002460D01*
X006956Y002460D01*
X006936Y002440D01*
X006597Y002440D01*
X006310Y002153D01*
X006310Y001747D01*
X006597Y001460D01*
X007003Y001460D01*
X007290Y001747D01*
X007290Y002086D01*
X007310Y002106D01*
X007310Y001747D01*
X007597Y001460D01*
X008003Y001460D01*
X008290Y001747D01*
X008290Y002153D01*
X008290Y002068D02*
X010646Y002068D01*
X010481Y001988D02*
X010481Y001988D01*
X010481Y001988D01*
X010466Y001969D02*
X008290Y001969D01*
X008290Y001871D02*
X010387Y001871D01*
X010309Y001772D02*
X008290Y001772D01*
X008217Y001674D02*
X010260Y001674D01*
X010272Y001726D02*
X010272Y001726D01*
X010238Y001575D02*
X008118Y001575D01*
X008020Y001477D02*
X010215Y001477D01*
X010198Y001400D02*
X010198Y001400D01*
X010202Y001378D02*
X002098Y001378D01*
X002102Y001400D02*
X002028Y001726D01*
X002028Y001726D01*
X001819Y001988D01*
X001517Y002134D01*
X001183Y002134D01*
X000881Y001988D01*
X000672Y001726D01*
X000598Y001400D01*
X000672Y001074D01*
X000881Y000812D01*
X001183Y000666D01*
X001517Y000666D01*
X001819Y000812D01*
X002028Y001074D01*
X002102Y001400D01*
X002085Y001477D02*
X005580Y001477D01*
X005597Y001460D02*
X006003Y001460D01*
X006290Y001747D01*
X006290Y002153D01*
X006003Y002440D01*
X005597Y002440D01*
X005310Y002153D01*
X005310Y001747D01*
X005597Y001460D01*
X005482Y001575D02*
X005090Y001575D01*
X004995Y001480D02*
X005270Y001755D01*
X005270Y001900D01*
X004850Y001900D01*
X004850Y002000D01*
X005270Y002000D01*
X005270Y002145D01*
X004995Y002420D01*
X004850Y002420D01*
X004850Y002000D01*
X004750Y002000D01*
X004750Y002420D01*
X004605Y002420D01*
X004330Y002145D01*
X004330Y002000D01*
X004750Y002000D01*
X004750Y001900D01*
X004850Y001900D01*
X004850Y001480D01*
X004995Y001480D01*
X004850Y001575D02*
X004750Y001575D01*
X004750Y001480D02*
X004750Y001900D01*
X004330Y001900D01*
X004330Y001755D01*
X004605Y001480D01*
X004750Y001480D01*
X004750Y001674D02*
X004850Y001674D01*
X004850Y001772D02*
X004750Y001772D01*
X004750Y001871D02*
X004850Y001871D01*
X004850Y001969D02*
X005310Y001969D01*
X005310Y001871D02*
X005270Y001871D01*
X005270Y001772D02*
X005310Y001772D01*
X005383Y001674D02*
X005189Y001674D01*
X005270Y002068D02*
X005310Y002068D01*
X005324Y002166D02*
X005248Y002166D01*
X005150Y002265D02*
X005422Y002265D01*
X005521Y002363D02*
X005051Y002363D01*
X005005Y002462D02*
X005595Y002462D01*
X005597Y002460D02*
X006003Y002460D01*
X006290Y002747D01*
X006290Y003153D01*
X006003Y003440D01*
X005597Y003440D01*
X005310Y003153D01*
X005310Y002747D01*
X005597Y002460D01*
X005497Y002560D02*
X005103Y002560D01*
X005202Y002659D02*
X005398Y002659D01*
X005310Y002757D02*
X005290Y002757D01*
X005290Y002856D02*
X005310Y002856D01*
X005310Y002954D02*
X005290Y002954D01*
X005290Y003053D02*
X005310Y003053D01*
X005310Y003151D02*
X005290Y003151D01*
X005193Y003250D02*
X005407Y003250D01*
X005506Y003349D02*
X005094Y003349D01*
X004657Y003447D02*
X006943Y003447D01*
X007042Y003546D02*
X004558Y003546D01*
X004460Y003644D02*
X007140Y003644D01*
X007239Y003743D02*
X004361Y003743D01*
X004263Y003841D02*
X007337Y003841D01*
X007436Y003940D02*
X004164Y003940D01*
X004066Y004038D02*
X007534Y004038D01*
X007633Y004137D02*
X003967Y004137D01*
X003869Y004235D02*
X007731Y004235D01*
X007830Y004334D02*
X007016Y004334D01*
X007003Y004321D02*
X007129Y004447D01*
X007197Y004611D01*
X007197Y004789D01*
X007129Y004953D01*
X007003Y005079D01*
X006839Y005147D01*
X006661Y005147D01*
X006497Y005079D01*
X006371Y004953D01*
X006303Y004789D01*
X006303Y004611D01*
X006371Y004447D01*
X006497Y004321D01*
X006661Y004253D01*
X006839Y004253D01*
X007003Y004321D01*
X007115Y004432D02*
X007928Y004432D01*
X008027Y004531D02*
X007164Y004531D01*
X007197Y004629D02*
X008125Y004629D01*
X008224Y004728D02*
X007197Y004728D01*
X007182Y004826D02*
X008322Y004826D01*
X008421Y004925D02*
X007141Y004925D01*
X007060Y005023D02*
X008500Y005023D01*
X008500Y005122D02*
X006902Y005122D01*
X006598Y005122D02*
X005902Y005122D01*
X005839Y005147D02*
X005661Y005147D01*
X005497Y005079D01*
X005371Y004953D01*
X005303Y004789D01*
X005303Y004611D01*
X005371Y004447D01*
X005497Y004321D01*
X005661Y004253D01*
X005839Y004253D01*
X006003Y004321D01*
X006129Y004447D01*
X006197Y004611D01*
X006197Y004789D01*
X006129Y004953D01*
X006003Y005079D01*
X005839Y005147D01*
X005598Y005122D02*
X003000Y005122D01*
X003000Y005220D02*
X008500Y005220D01*
X008500Y005319D02*
X003000Y005319D01*
X003000Y005417D02*
X008500Y005417D01*
X008500Y005516D02*
X003000Y005516D01*
X003000Y005614D02*
X008500Y005614D01*
X008500Y005713D02*
X003000Y005713D01*
X003000Y005811D02*
X008500Y005811D01*
X008500Y005910D02*
X003000Y005910D01*
X003000Y006008D02*
X008500Y006008D01*
X008500Y006107D02*
X003000Y006107D01*
X003000Y006205D02*
X008500Y006205D01*
X008500Y006304D02*
X003000Y006304D01*
X003000Y006402D02*
X008500Y006402D01*
X008500Y006501D02*
X003000Y006501D01*
X003000Y006599D02*
X008500Y006599D01*
X008500Y006698D02*
X003000Y006698D01*
X003000Y006796D02*
X008500Y006796D01*
X008500Y006895D02*
X003000Y006895D01*
X003000Y006993D02*
X008500Y006993D01*
X008500Y007092D02*
X003000Y007092D01*
X003000Y007190D02*
X008500Y007190D01*
X008500Y007289D02*
X003000Y007289D01*
X003000Y007387D02*
X008500Y007387D01*
X008500Y007486D02*
X003000Y007486D01*
X003000Y007584D02*
X008500Y007584D01*
X008500Y007683D02*
X003000Y007683D01*
X003000Y007781D02*
X008500Y007781D01*
X008500Y007880D02*
X003000Y007880D01*
X003000Y007978D02*
X008500Y007978D01*
X008500Y008077D02*
X003000Y008077D01*
X003000Y008175D02*
X004199Y008175D01*
X004155Y008274D02*
X003000Y008274D01*
X003000Y008372D02*
X004155Y008372D01*
X004155Y008471D02*
X003000Y008471D01*
X003000Y008569D02*
X004155Y008569D01*
X004155Y008668D02*
X003000Y008668D01*
X003000Y008766D02*
X004155Y008766D01*
X004155Y008865D02*
X003000Y008865D01*
X003000Y008963D02*
X004155Y008963D01*
X004155Y009062D02*
X003000Y009062D01*
X003000Y009160D02*
X004155Y009160D01*
X004155Y009259D02*
X003000Y009259D01*
X003000Y009357D02*
X004155Y009357D01*
X004155Y009456D02*
X003000Y009456D01*
X003000Y009554D02*
X004155Y009554D01*
X004155Y009653D02*
X003000Y009653D01*
X003000Y009751D02*
X004155Y009751D01*
X004155Y009850D02*
X003000Y009850D01*
X003000Y009948D02*
X004155Y009948D01*
X004155Y010047D02*
X003000Y010047D01*
X003000Y010145D02*
X004155Y010145D01*
X004155Y010244D02*
X003000Y010244D01*
X003000Y010342D02*
X004155Y010342D01*
X004155Y010441D02*
X003000Y010441D01*
X003000Y010539D02*
X004155Y010539D01*
X004155Y010638D02*
X003000Y010638D01*
X003000Y010736D02*
X004155Y010736D01*
X004155Y010835D02*
X003000Y010835D01*
X003000Y010933D02*
X004155Y010933D01*
X004155Y011032D02*
X003000Y011032D01*
X003000Y011130D02*
X004155Y011130D01*
X004155Y011229D02*
X003000Y011229D01*
X003000Y011327D02*
X004155Y011327D01*
X004155Y011426D02*
X003000Y011426D01*
X003000Y011524D02*
X004155Y011524D01*
X004155Y011623D02*
X003000Y011623D01*
X003000Y011721D02*
X004155Y011721D01*
X004155Y011820D02*
X003000Y011820D01*
X003000Y011918D02*
X004155Y011918D01*
X004155Y012017D02*
X003000Y012017D01*
X003000Y012115D02*
X004155Y012115D01*
X004155Y012214D02*
X003000Y012214D01*
X003000Y012312D02*
X004155Y012312D01*
X004155Y012411D02*
X003000Y012411D01*
X003000Y012509D02*
X004155Y012509D01*
X004155Y012608D02*
X003000Y012608D01*
X003000Y012706D02*
X004155Y012706D01*
X004155Y012805D02*
X003000Y012805D01*
X003000Y012903D02*
X004155Y012903D01*
X004155Y013002D02*
X003000Y013002D01*
X003000Y013100D02*
X004155Y013100D01*
X004155Y013199D02*
X003000Y013199D01*
X003000Y013297D02*
X004155Y013297D01*
X004155Y013396D02*
X003000Y013396D01*
X003000Y013494D02*
X004155Y013494D01*
X004155Y013593D02*
X003000Y013593D01*
X003000Y013691D02*
X003476Y013691D01*
X003378Y013790D02*
X003000Y013790D01*
X003000Y013888D02*
X003333Y013888D01*
X003303Y013987D02*
X003000Y013987D01*
X003000Y014085D02*
X003303Y014085D01*
X003321Y014184D02*
X003000Y014184D01*
X003000Y014282D02*
X003362Y014282D01*
X003448Y014381D02*
X003000Y014381D01*
X003000Y014479D02*
X003488Y014479D01*
X003390Y014578D02*
X003000Y014578D01*
X003000Y014676D02*
X003338Y014676D01*
X003303Y014775D02*
X003000Y014775D01*
X003000Y014873D02*
X003303Y014873D01*
X003316Y014972D02*
X003000Y014972D01*
X003000Y015070D02*
X003357Y015070D01*
X003436Y015169D02*
X003000Y015169D01*
X003000Y015267D02*
X003560Y015267D01*
X003430Y015366D02*
X003019Y015366D01*
X003118Y015464D02*
X003365Y015464D01*
X003331Y015563D02*
X003216Y015563D01*
X003315Y015661D02*
X003721Y015661D01*
X003198Y016252D02*
X000370Y016252D01*
X000370Y016154D02*
X003100Y016154D01*
X003001Y016055D02*
X000370Y016055D01*
X000370Y015957D02*
X002903Y015957D01*
X002804Y015858D02*
X000370Y015858D01*
X000370Y015760D02*
X002706Y015760D01*
X002607Y015661D02*
X000370Y015661D01*
X000370Y015563D02*
X002526Y015563D01*
X002500Y015464D02*
X000370Y015464D01*
X000370Y015366D02*
X002500Y015366D01*
X002500Y015267D02*
X000370Y015267D01*
X000370Y015169D02*
X002500Y015169D01*
X002500Y015070D02*
X000370Y015070D01*
X000370Y014972D02*
X002500Y014972D01*
X002500Y014873D02*
X000370Y014873D01*
X000370Y014775D02*
X002500Y014775D01*
X002500Y014676D02*
X000370Y014676D01*
X000370Y014578D02*
X002500Y014578D01*
X002500Y014479D02*
X000370Y014479D01*
X000370Y014381D02*
X002500Y014381D01*
X002500Y014282D02*
X000370Y014282D01*
X000370Y014184D02*
X002500Y014184D01*
X002500Y014085D02*
X000370Y014085D01*
X000370Y013987D02*
X002500Y013987D01*
X002500Y013888D02*
X000370Y013888D01*
X000370Y013790D02*
X002500Y013790D01*
X002500Y013691D02*
X000370Y013691D01*
X000370Y013593D02*
X002500Y013593D01*
X002500Y013494D02*
X000370Y013494D01*
X000370Y013396D02*
X002500Y013396D01*
X002500Y013297D02*
X000370Y013297D01*
X000370Y013199D02*
X002500Y013199D01*
X002500Y013100D02*
X000370Y013100D01*
X000370Y013002D02*
X002500Y013002D01*
X002500Y012903D02*
X000370Y012903D01*
X000370Y012805D02*
X002500Y012805D01*
X002500Y012706D02*
X000370Y012706D01*
X000370Y012608D02*
X002500Y012608D01*
X002500Y012509D02*
X000370Y012509D01*
X000370Y012411D02*
X002500Y012411D01*
X002500Y012312D02*
X000370Y012312D01*
X000370Y012214D02*
X002500Y012214D01*
X002500Y012115D02*
X000370Y012115D01*
X000370Y012017D02*
X002500Y012017D01*
X002500Y011918D02*
X000370Y011918D01*
X000370Y011820D02*
X002500Y011820D01*
X002500Y011721D02*
X000370Y011721D01*
X000370Y011623D02*
X002500Y011623D01*
X002500Y011524D02*
X000370Y011524D01*
X000370Y011426D02*
X002500Y011426D01*
X002500Y011327D02*
X000370Y011327D01*
X000370Y011229D02*
X002500Y011229D01*
X002500Y011130D02*
X000370Y011130D01*
X000370Y011032D02*
X002500Y011032D01*
X002500Y010933D02*
X000370Y010933D01*
X000370Y010835D02*
X002500Y010835D01*
X002500Y010736D02*
X000370Y010736D01*
X000370Y010638D02*
X002500Y010638D01*
X002500Y010539D02*
X000370Y010539D01*
X000370Y010441D02*
X002500Y010441D01*
X002500Y010342D02*
X000370Y010342D01*
X000370Y010244D02*
X002500Y010244D01*
X002500Y010145D02*
X000370Y010145D01*
X000370Y010047D02*
X002500Y010047D01*
X002500Y009948D02*
X000370Y009948D01*
X000370Y009850D02*
X002500Y009850D01*
X002500Y009751D02*
X000370Y009751D01*
X000370Y009653D02*
X002500Y009653D01*
X002500Y009554D02*
X000370Y009554D01*
X000370Y009456D02*
X002500Y009456D01*
X002500Y009357D02*
X000370Y009357D01*
X000370Y009259D02*
X002500Y009259D01*
X002500Y009160D02*
X000370Y009160D01*
X000370Y009062D02*
X002500Y009062D01*
X002500Y008963D02*
X000370Y008963D01*
X000370Y008865D02*
X002500Y008865D01*
X002500Y008766D02*
X000370Y008766D01*
X000370Y008668D02*
X002500Y008668D01*
X002500Y008569D02*
X000370Y008569D01*
X000370Y008471D02*
X002500Y008471D01*
X002500Y008372D02*
X000370Y008372D01*
X000370Y008274D02*
X002500Y008274D01*
X002500Y008175D02*
X000370Y008175D01*
X000370Y008077D02*
X002500Y008077D01*
X002500Y007978D02*
X000370Y007978D01*
X000370Y007880D02*
X002500Y007880D01*
X002500Y007781D02*
X000370Y007781D01*
X000370Y007683D02*
X002500Y007683D01*
X002500Y007584D02*
X000370Y007584D01*
X000370Y007486D02*
X002500Y007486D01*
X002500Y007387D02*
X000370Y007387D01*
X000370Y007289D02*
X002500Y007289D01*
X002500Y007190D02*
X000370Y007190D01*
X000370Y007092D02*
X002500Y007092D01*
X002500Y006993D02*
X000370Y006993D01*
X000370Y006895D02*
X002500Y006895D01*
X002500Y006796D02*
X000370Y006796D01*
X000370Y006698D02*
X002500Y006698D01*
X002500Y006599D02*
X000370Y006599D01*
X000370Y006501D02*
X002500Y006501D01*
X002500Y006402D02*
X000370Y006402D01*
X000370Y006304D02*
X002500Y006304D01*
X002500Y006205D02*
X000370Y006205D01*
X000370Y006107D02*
X002500Y006107D01*
X002500Y006008D02*
X000370Y006008D01*
X000370Y005910D02*
X002500Y005910D01*
X002500Y005811D02*
X000370Y005811D01*
X000370Y005713D02*
X002500Y005713D01*
X002500Y005614D02*
X000370Y005614D01*
X000370Y005516D02*
X002500Y005516D01*
X002500Y005417D02*
X000370Y005417D01*
X000370Y005319D02*
X002500Y005319D01*
X002500Y005220D02*
X000370Y005220D01*
X000370Y005122D02*
X002500Y005122D01*
X002500Y005023D02*
X000370Y005023D01*
X000370Y004925D02*
X002511Y004925D01*
X002570Y004826D02*
X000370Y004826D01*
X000370Y004728D02*
X002669Y004728D01*
X002767Y004629D02*
X000370Y004629D01*
X000370Y004531D02*
X002866Y004531D01*
X002964Y004432D02*
X000370Y004432D01*
X000370Y004334D02*
X003063Y004334D01*
X003161Y004235D02*
X000370Y004235D01*
X000370Y004137D02*
X003260Y004137D01*
X003358Y004038D02*
X000370Y004038D01*
X000370Y003940D02*
X003457Y003940D01*
X003555Y003841D02*
X000370Y003841D01*
X000370Y003743D02*
X003654Y003743D01*
X003752Y003644D02*
X000370Y003644D01*
X000370Y003546D02*
X003851Y003546D01*
X003949Y003447D02*
X000370Y003447D01*
X000370Y003349D02*
X004048Y003349D01*
X004146Y003250D02*
X000370Y003250D01*
X000370Y003151D02*
X004245Y003151D01*
X004310Y003053D02*
X000370Y003053D01*
X000370Y002954D02*
X004310Y002954D01*
X004310Y002856D02*
X000370Y002856D01*
X000370Y002757D02*
X004310Y002757D01*
X004398Y002659D02*
X000370Y002659D01*
X000370Y002560D02*
X004497Y002560D01*
X004595Y002462D02*
X000370Y002462D01*
X000370Y002363D02*
X004549Y002363D01*
X004450Y002265D02*
X000370Y002265D01*
X000370Y002166D02*
X004352Y002166D01*
X004330Y002068D02*
X001654Y002068D01*
X001819Y001988D02*
X001819Y001988D01*
X001834Y001969D02*
X004750Y001969D01*
X004750Y002068D02*
X004850Y002068D01*
X004850Y002166D02*
X004750Y002166D01*
X004750Y002265D02*
X004850Y002265D01*
X004850Y002363D02*
X004750Y002363D01*
X004330Y001871D02*
X001913Y001871D01*
X001991Y001772D02*
X004330Y001772D01*
X004411Y001674D02*
X002040Y001674D01*
X002062Y001575D02*
X004510Y001575D01*
X006020Y001477D02*
X006580Y001477D01*
X006482Y001575D02*
X006118Y001575D01*
X006217Y001674D02*
X006383Y001674D01*
X006310Y001772D02*
X006290Y001772D01*
X006290Y001871D02*
X006310Y001871D01*
X006310Y001969D02*
X006290Y001969D01*
X006290Y002068D02*
X006310Y002068D01*
X006324Y002166D02*
X006276Y002166D01*
X006178Y002265D02*
X006422Y002265D01*
X006521Y002363D02*
X006079Y002363D01*
X006005Y002462D02*
X006595Y002462D01*
X006497Y002560D02*
X006103Y002560D01*
X006202Y002659D02*
X006398Y002659D01*
X006310Y002757D02*
X006290Y002757D01*
X006290Y002856D02*
X006310Y002856D01*
X006310Y002954D02*
X006290Y002954D01*
X006290Y003053D02*
X006310Y003053D01*
X006310Y003151D02*
X006290Y003151D01*
X006193Y003250D02*
X006407Y003250D01*
X006506Y003349D02*
X006094Y003349D01*
X006016Y004334D02*
X006484Y004334D01*
X006385Y004432D02*
X006115Y004432D01*
X006164Y004531D02*
X006336Y004531D01*
X006303Y004629D02*
X006197Y004629D01*
X006197Y004728D02*
X006303Y004728D01*
X006318Y004826D02*
X006182Y004826D01*
X006141Y004925D02*
X006359Y004925D01*
X006440Y005023D02*
X006060Y005023D01*
X005440Y005023D02*
X003081Y005023D01*
X003179Y004925D02*
X005359Y004925D01*
X005318Y004826D02*
X003278Y004826D01*
X003376Y004728D02*
X005303Y004728D01*
X005303Y004629D02*
X003475Y004629D01*
X003573Y004531D02*
X005336Y004531D01*
X005385Y004432D02*
X003672Y004432D01*
X003770Y004334D02*
X005484Y004334D01*
X007118Y001575D02*
X007482Y001575D01*
X007580Y001477D02*
X007020Y001477D01*
X007217Y001674D02*
X007383Y001674D01*
X007310Y001772D02*
X007290Y001772D01*
X007290Y001871D02*
X007310Y001871D01*
X007310Y001969D02*
X007290Y001969D01*
X007290Y002068D02*
X007310Y002068D01*
X008319Y002265D02*
X011930Y002265D01*
X011930Y002363D02*
X008417Y002363D01*
X008516Y002462D02*
X011930Y002462D01*
X011930Y002560D02*
X008614Y002560D01*
X008713Y002659D02*
X011930Y002659D01*
X011930Y002757D02*
X008811Y002757D01*
X008910Y002856D02*
X011930Y002856D01*
X011930Y002954D02*
X009008Y002954D01*
X009107Y003053D02*
X011930Y003053D01*
X011930Y003151D02*
X009205Y003151D01*
X009304Y003250D02*
X011930Y003250D01*
X011930Y003349D02*
X009402Y003349D01*
X009478Y003447D02*
X011930Y003447D01*
X011930Y003546D02*
X009500Y003546D01*
X009500Y003644D02*
X011930Y003644D01*
X011930Y003743D02*
X009500Y003743D01*
X009500Y003841D02*
X011930Y003841D01*
X011930Y003940D02*
X009500Y003940D01*
X009500Y004038D02*
X011930Y004038D01*
X011930Y004137D02*
X009500Y004137D01*
X009500Y004235D02*
X011930Y004235D01*
X011930Y004334D02*
X009500Y004334D01*
X009500Y004432D02*
X011930Y004432D01*
X011930Y004531D02*
X009500Y004531D01*
X009500Y004629D02*
X011930Y004629D01*
X011930Y004728D02*
X009500Y004728D01*
X009500Y004826D02*
X011930Y004826D01*
X011930Y004925D02*
X009500Y004925D01*
X009500Y005023D02*
X011930Y005023D01*
X011930Y005122D02*
X009500Y005122D01*
X009500Y005220D02*
X011930Y005220D01*
X011930Y005319D02*
X009500Y005319D01*
X009500Y005417D02*
X011930Y005417D01*
X011930Y005516D02*
X009500Y005516D01*
X009500Y005614D02*
X011930Y005614D01*
X011930Y005713D02*
X009500Y005713D01*
X009500Y005811D02*
X011930Y005811D01*
X011930Y005910D02*
X009500Y005910D01*
X009500Y006008D02*
X011930Y006008D01*
X011930Y006107D02*
X009500Y006107D01*
X009500Y006205D02*
X011930Y006205D01*
X011930Y006304D02*
X009500Y006304D01*
X009500Y006402D02*
X011930Y006402D01*
X011930Y006501D02*
X009500Y006501D01*
X009500Y006599D02*
X011930Y006599D01*
X011930Y006698D02*
X009500Y006698D01*
X009500Y006796D02*
X011930Y006796D01*
X011930Y006895D02*
X009500Y006895D01*
X009500Y006993D02*
X011930Y006993D01*
X011930Y007092D02*
X009500Y007092D01*
X009500Y007190D02*
X011930Y007190D01*
X011930Y007289D02*
X009500Y007289D01*
X009500Y007387D02*
X011930Y007387D01*
X011930Y007486D02*
X009500Y007486D01*
X009500Y007584D02*
X011930Y007584D01*
X011930Y007683D02*
X009500Y007683D01*
X009500Y007781D02*
X011930Y007781D01*
X011930Y007880D02*
X009500Y007880D01*
X009500Y007978D02*
X011930Y007978D01*
X011930Y008077D02*
X009500Y008077D01*
X009500Y008175D02*
X011930Y008175D01*
X011930Y008274D02*
X009500Y008274D01*
X009500Y008372D02*
X011930Y008372D01*
X011930Y008471D02*
X009500Y008471D01*
X009500Y008569D02*
X011930Y008569D01*
X011930Y008668D02*
X009500Y008668D01*
X009500Y008766D02*
X011930Y008766D01*
X011930Y008865D02*
X009500Y008865D01*
X009500Y008963D02*
X011930Y008963D01*
X011930Y009062D02*
X009500Y009062D01*
X009500Y009160D02*
X011930Y009160D01*
X011930Y009259D02*
X009500Y009259D01*
X009500Y009357D02*
X011930Y009357D01*
X011930Y009456D02*
X009500Y009456D01*
X009500Y009554D02*
X011930Y009554D01*
X011930Y009653D02*
X009500Y009653D01*
X009500Y009751D02*
X011930Y009751D01*
X011930Y009850D02*
X009500Y009850D01*
X009500Y009948D02*
X011930Y009948D01*
X011930Y010047D02*
X009500Y010047D01*
X009500Y010145D02*
X011930Y010145D01*
X011930Y010244D02*
X009500Y010244D01*
X009500Y010342D02*
X011930Y010342D01*
X011930Y010441D02*
X009500Y010441D01*
X009500Y010539D02*
X011930Y010539D01*
X011930Y010638D02*
X009500Y010638D01*
X009500Y010736D02*
X011930Y010736D01*
X011930Y010835D02*
X009500Y010835D01*
X009500Y010933D02*
X011930Y010933D01*
X011930Y011032D02*
X009500Y011032D01*
X009500Y011130D02*
X011930Y011130D01*
X011930Y011229D02*
X009500Y011229D01*
X009500Y011327D02*
X011930Y011327D01*
X011930Y011426D02*
X009500Y011426D01*
X009500Y011524D02*
X011930Y011524D01*
X011930Y011623D02*
X009500Y011623D01*
X009500Y011721D02*
X011930Y011721D01*
X011930Y011820D02*
X009500Y011820D01*
X009500Y011918D02*
X011930Y011918D01*
X011930Y012017D02*
X009500Y012017D01*
X009500Y012115D02*
X011930Y012115D01*
X011930Y012214D02*
X009500Y012214D01*
X009500Y012312D02*
X011930Y012312D01*
X011930Y012411D02*
X009500Y012411D01*
X009500Y012509D02*
X011930Y012509D01*
X011930Y012608D02*
X009500Y012608D01*
X009500Y012706D02*
X011930Y012706D01*
X011930Y012805D02*
X009500Y012805D01*
X009500Y012903D02*
X011930Y012903D01*
X011930Y013002D02*
X009500Y013002D01*
X009500Y013100D02*
X011930Y013100D01*
X011930Y013199D02*
X009500Y013199D01*
X009500Y013297D02*
X011930Y013297D01*
X011930Y013396D02*
X009500Y013396D01*
X009500Y013494D02*
X011930Y013494D01*
X011930Y013593D02*
X009500Y013593D01*
X009500Y013691D02*
X011930Y013691D01*
X011930Y013790D02*
X009500Y013790D01*
X009500Y013888D02*
X011930Y013888D01*
X011930Y013987D02*
X009500Y013987D01*
X009500Y014085D02*
X011930Y014085D01*
X011930Y014184D02*
X009500Y014184D01*
X009500Y014282D02*
X011930Y014282D01*
X011930Y014381D02*
X009500Y014381D01*
X009500Y014479D02*
X011930Y014479D01*
X011930Y014578D02*
X009500Y014578D01*
X009500Y014676D02*
X011930Y014676D01*
X011930Y014775D02*
X009500Y014775D01*
X009500Y014873D02*
X011930Y014873D01*
X011930Y014972D02*
X009500Y014972D01*
X009500Y015070D02*
X011930Y015070D01*
X011930Y015169D02*
X009500Y015169D01*
X009500Y015267D02*
X011930Y015267D01*
X011930Y015366D02*
X009493Y015366D01*
X009440Y015464D02*
X011930Y015464D01*
X011930Y015563D02*
X009341Y015563D01*
X009243Y015661D02*
X011930Y015661D01*
X011930Y015760D02*
X009197Y015760D01*
X009197Y015858D02*
X011930Y015858D01*
X011930Y015957D02*
X009170Y015957D01*
X009128Y016055D02*
X011930Y016055D01*
X011930Y016154D02*
X009029Y016154D01*
X009035Y016252D02*
X011930Y016252D01*
X011930Y016351D02*
X009131Y016351D01*
X009172Y016449D02*
X011930Y016449D01*
X011930Y016548D02*
X009197Y016548D01*
X009197Y016646D02*
X011930Y016646D01*
X011930Y016745D02*
X009174Y016745D01*
X009134Y016843D02*
X011930Y016843D01*
X011930Y016942D02*
X009041Y016942D01*
X008857Y017040D02*
X011930Y017040D01*
X011930Y017139D02*
X008395Y017139D01*
X008395Y017237D02*
X011930Y017237D01*
X011930Y017336D02*
X008395Y017336D01*
X008395Y017434D02*
X011930Y017434D01*
X011930Y017533D02*
X008395Y017533D01*
X008395Y017631D02*
X011930Y017631D01*
X011930Y017730D02*
X008395Y017730D01*
X008395Y017828D02*
X011930Y017828D01*
X011930Y017927D02*
X008395Y017927D01*
X008395Y018025D02*
X011930Y018025D01*
X011930Y018124D02*
X008395Y018124D01*
X008395Y018222D02*
X011930Y018222D01*
X011930Y018321D02*
X008395Y018321D01*
X008395Y018419D02*
X011930Y018419D01*
X011930Y018518D02*
X008395Y018518D01*
X008395Y018616D02*
X011930Y018616D01*
X011930Y018715D02*
X011212Y018715D01*
X011117Y018669D02*
X011418Y018814D01*
X011626Y019075D01*
X011700Y019400D01*
X011626Y019725D01*
X011626Y019725D01*
X011418Y019986D01*
X011117Y020131D01*
X010783Y020131D01*
X010482Y019986D01*
X010274Y019725D01*
X010200Y019400D01*
X010200Y019400D01*
X010274Y019075D01*
X010274Y019075D01*
X010482Y018814D01*
X010783Y018669D01*
X011117Y018669D01*
X011416Y018813D02*
X011930Y018813D01*
X011930Y018912D02*
X011496Y018912D01*
X011574Y019010D02*
X011930Y019010D01*
X011930Y019109D02*
X011633Y019109D01*
X011626Y019075D02*
X011626Y019075D01*
X011656Y019207D02*
X011930Y019207D01*
X011930Y019306D02*
X011678Y019306D01*
X011699Y019404D02*
X011930Y019404D01*
X011930Y019503D02*
X011677Y019503D01*
X011654Y019601D02*
X011930Y019601D01*
X011930Y019700D02*
X011632Y019700D01*
X011568Y019798D02*
X011930Y019798D01*
X011930Y019897D02*
X011489Y019897D01*
X011418Y019986D02*
X011418Y019986D01*
X011400Y019995D02*
X011930Y019995D01*
X011930Y020094D02*
X011195Y020094D01*
X010705Y020094D02*
X001595Y020094D01*
X001517Y020131D02*
X001183Y020131D01*
X000882Y019986D01*
X000674Y019725D01*
X000600Y019400D01*
X000600Y019400D01*
X000674Y019075D01*
X000674Y019075D01*
X000882Y018814D01*
X001183Y018669D01*
X001517Y018669D01*
X001818Y018814D01*
X002026Y019075D01*
X002100Y019400D01*
X002026Y019725D01*
X002026Y019725D01*
X001818Y019986D01*
X001517Y020131D01*
X001800Y019995D02*
X010500Y019995D01*
X010482Y019986D02*
X010482Y019986D01*
X010482Y019986D01*
X010411Y019897D02*
X001889Y019897D01*
X001818Y019986D02*
X001818Y019986D01*
X001968Y019798D02*
X010332Y019798D01*
X010274Y019725D02*
X010274Y019725D01*
X010268Y019700D02*
X002032Y019700D01*
X002054Y019601D02*
X010246Y019601D01*
X010223Y019503D02*
X008323Y019503D01*
X008395Y019404D02*
X010201Y019404D01*
X010222Y019306D02*
X008395Y019306D01*
X008395Y019207D02*
X010244Y019207D01*
X010267Y019109D02*
X008395Y019109D01*
X008395Y019010D02*
X010326Y019010D01*
X010404Y018912D02*
X008395Y018912D01*
X008395Y018813D02*
X010484Y018813D01*
X010482Y018814D02*
X010482Y018814D01*
X010688Y018715D02*
X008395Y018715D01*
X008395Y017040D02*
X008643Y017040D01*
X008459Y016942D02*
X008395Y016942D01*
X008395Y013888D02*
X008429Y013888D01*
X008395Y013790D02*
X008500Y013790D01*
X008500Y013691D02*
X008395Y013691D01*
X008395Y013593D02*
X008500Y013593D01*
X008500Y013494D02*
X008395Y013494D01*
X008395Y013396D02*
X008500Y013396D01*
X008500Y013297D02*
X008395Y013297D01*
X008395Y013199D02*
X008500Y013199D01*
X008500Y013100D02*
X008395Y013100D01*
X008395Y013002D02*
X008500Y013002D01*
X008500Y012903D02*
X008395Y012903D01*
X008395Y012805D02*
X008500Y012805D01*
X008500Y012706D02*
X008395Y012706D01*
X008395Y012608D02*
X008500Y012608D01*
X008500Y012509D02*
X008395Y012509D01*
X008395Y012411D02*
X008500Y012411D01*
X008500Y012312D02*
X008395Y012312D01*
X008395Y012214D02*
X008500Y012214D01*
X008500Y012115D02*
X008395Y012115D01*
X008395Y012017D02*
X008500Y012017D01*
X008500Y011918D02*
X008395Y011918D01*
X008395Y011820D02*
X008500Y011820D01*
X008500Y011721D02*
X008395Y011721D01*
X008395Y011623D02*
X008500Y011623D01*
X008500Y011524D02*
X008395Y011524D01*
X008395Y011426D02*
X008500Y011426D01*
X008500Y011327D02*
X008395Y011327D01*
X008395Y011229D02*
X008500Y011229D01*
X008500Y011130D02*
X008395Y011130D01*
X008395Y011032D02*
X008500Y011032D01*
X008500Y010933D02*
X008395Y010933D01*
X008395Y010835D02*
X008500Y010835D01*
X008500Y010736D02*
X008395Y010736D01*
X008395Y010638D02*
X008500Y010638D01*
X008500Y010539D02*
X008395Y010539D01*
X008395Y010441D02*
X008500Y010441D01*
X008500Y010342D02*
X008395Y010342D01*
X008395Y010244D02*
X008500Y010244D01*
X008500Y010145D02*
X008395Y010145D01*
X008395Y010047D02*
X008500Y010047D01*
X008500Y009948D02*
X008395Y009948D01*
X008395Y009850D02*
X008500Y009850D01*
X008500Y009751D02*
X008395Y009751D01*
X008395Y009653D02*
X008500Y009653D01*
X008500Y009554D02*
X008395Y009554D01*
X008395Y009456D02*
X008500Y009456D01*
X008500Y009357D02*
X008395Y009357D01*
X008395Y009259D02*
X008500Y009259D01*
X008500Y009160D02*
X008395Y009160D01*
X008395Y009062D02*
X008500Y009062D01*
X008500Y008963D02*
X008395Y008963D01*
X008395Y008865D02*
X008500Y008865D01*
X008500Y008766D02*
X008395Y008766D01*
X008395Y008668D02*
X008500Y008668D01*
X008500Y008569D02*
X008395Y008569D01*
X008395Y008471D02*
X008500Y008471D01*
X008500Y008372D02*
X008395Y008372D01*
X008395Y008274D02*
X008500Y008274D01*
X008500Y008175D02*
X008351Y008175D01*
X010225Y001280D02*
X002075Y001280D01*
X002053Y001181D02*
X010247Y001181D01*
X010270Y001083D02*
X002030Y001083D01*
X002028Y001074D02*
X002028Y001074D01*
X001957Y000984D02*
X010343Y000984D01*
X010422Y000886D02*
X001878Y000886D01*
X001819Y000812D02*
X001819Y000812D01*
X001819Y000812D01*
X001769Y000787D02*
X010531Y000787D01*
X010481Y000812D02*
X010481Y000812D01*
X010736Y000689D02*
X001564Y000689D01*
X001136Y000689D02*
X000370Y000689D01*
X000370Y000787D02*
X000931Y000787D01*
X000881Y000812D02*
X000881Y000812D01*
X000822Y000886D02*
X000370Y000886D01*
X000370Y000984D02*
X000743Y000984D01*
X000672Y001074D02*
X000672Y001074D01*
X000670Y001083D02*
X000370Y001083D01*
X000370Y001181D02*
X000647Y001181D01*
X000625Y001280D02*
X000370Y001280D01*
X000370Y001378D02*
X000602Y001378D01*
X000615Y001477D02*
X000370Y001477D01*
X000370Y001575D02*
X000638Y001575D01*
X000660Y001674D02*
X000370Y001674D01*
X000370Y001772D02*
X000709Y001772D01*
X000672Y001726D02*
X000672Y001726D01*
X000787Y001871D02*
X000370Y001871D01*
X000370Y001969D02*
X000866Y001969D01*
X000881Y001988D02*
X000881Y001988D01*
X000881Y001988D01*
X001046Y002068D02*
X000370Y002068D01*
X004024Y013691D02*
X004155Y013691D01*
X004155Y013790D02*
X004122Y013790D01*
X003297Y016351D02*
X000370Y016351D01*
X000370Y016449D02*
X003303Y016449D01*
X003306Y016548D02*
X000370Y016548D01*
X000370Y016646D02*
X003347Y016646D01*
X003412Y016745D02*
X000370Y016745D01*
X000370Y016843D02*
X003530Y016843D01*
X003970Y016843D02*
X004155Y016843D01*
X004155Y016745D02*
X004088Y016745D01*
X004153Y016646D02*
X004155Y016646D01*
X004155Y016942D02*
X000370Y016942D01*
X000370Y017040D02*
X004155Y017040D01*
X004155Y017139D02*
X000370Y017139D01*
X000370Y017237D02*
X004155Y017237D01*
X004155Y017336D02*
X000370Y017336D01*
X000370Y017434D02*
X004155Y017434D01*
X004155Y017533D02*
X000370Y017533D01*
X000370Y017631D02*
X004155Y017631D01*
X004155Y017730D02*
X000370Y017730D01*
X000370Y017828D02*
X004155Y017828D01*
X004155Y017927D02*
X000370Y017927D01*
X000370Y018025D02*
X004155Y018025D01*
X004155Y018124D02*
X000370Y018124D01*
X000370Y018222D02*
X004155Y018222D01*
X004155Y018321D02*
X000370Y018321D01*
X000370Y018419D02*
X004155Y018419D01*
X004155Y018518D02*
X000370Y018518D01*
X000370Y018616D02*
X004155Y018616D01*
X004155Y018715D02*
X001612Y018715D01*
X001816Y018813D02*
X004155Y018813D01*
X004155Y018912D02*
X001896Y018912D01*
X001974Y019010D02*
X004155Y019010D01*
X004155Y019109D02*
X002033Y019109D01*
X002026Y019075D02*
X002026Y019075D01*
X002056Y019207D02*
X004155Y019207D01*
X004155Y019306D02*
X002078Y019306D01*
X002099Y019404D02*
X004155Y019404D01*
X004227Y019503D02*
X002077Y019503D01*
X001818Y018814D02*
X001818Y018814D01*
X001818Y018814D01*
X001088Y018715D02*
X000370Y018715D01*
X000370Y018813D02*
X000884Y018813D01*
X000882Y018814D02*
X000882Y018814D01*
X000804Y018912D02*
X000370Y018912D01*
X000370Y019010D02*
X000726Y019010D01*
X000667Y019109D02*
X000370Y019109D01*
X000370Y019207D02*
X000644Y019207D01*
X000622Y019306D02*
X000370Y019306D01*
X000370Y019404D02*
X000601Y019404D01*
X000623Y019503D02*
X000370Y019503D01*
X000370Y019601D02*
X000646Y019601D01*
X000668Y019700D02*
X000370Y019700D01*
X000370Y019798D02*
X000732Y019798D01*
X000674Y019725D02*
X000674Y019725D01*
X000811Y019897D02*
X000370Y019897D01*
X000370Y019995D02*
X000900Y019995D01*
X000882Y019986D02*
X000882Y019986D01*
X000882Y019986D01*
X001105Y020094D02*
X000370Y020094D01*
X000370Y020192D02*
X011930Y020192D01*
X011930Y020291D02*
X000370Y020291D01*
X011418Y018814D02*
X011418Y018814D01*
X011418Y018814D01*
D13*
X003900Y004700D03*
X002000Y015650D03*
D14*
X002750Y015450D02*
X003750Y016450D01*
X002750Y015450D02*
X002750Y005000D01*
X004800Y002950D01*
X006800Y002950D02*
X008750Y004900D01*
X008750Y014200D01*
X009250Y015300D02*
X008750Y015800D01*
X009250Y015300D02*
X009250Y003550D01*
X008150Y002450D01*
X007300Y002450D01*
X006800Y001950D01*
M02*
