G75*
%MOIN*%
%OFA0B0*%
%FSLAX24Y24*%
%IPPOS*%
%LPD*%
%AMOC8*
5,1,8,0,0,1.08239X$1,22.5*
%
%ADD10C,0.0160*%
%ADD11C,0.0040*%
%ADD12C,0.0080*%
%ADD13C,0.0010*%
%ADD14C,0.0060*%
%ADD15C,0.0050*%
D10*
X000500Y000550D02*
X011800Y000550D01*
X011800Y020250D01*
X000500Y020250D01*
X000500Y000550D01*
D11*
X001123Y005920D02*
X000970Y006073D01*
X001123Y006227D01*
X001430Y006227D01*
X001430Y006380D02*
X001430Y006611D01*
X001353Y006687D01*
X001046Y006687D01*
X000970Y006611D01*
X000970Y006380D01*
X001430Y006380D01*
X001200Y006227D02*
X001200Y005920D01*
X001123Y005920D02*
X001430Y005920D01*
X001430Y006841D02*
X000970Y006841D01*
X001430Y007148D01*
X000970Y007148D01*
X001046Y007301D02*
X000970Y007378D01*
X000970Y007531D01*
X001046Y007608D01*
X001200Y007531D02*
X001200Y007378D01*
X001123Y007301D01*
X001046Y007301D01*
X001200Y007531D02*
X001277Y007608D01*
X001353Y007608D01*
X001430Y007531D01*
X001430Y007378D01*
X001353Y007301D01*
X001200Y007762D02*
X001200Y008068D01*
X001046Y008222D02*
X000970Y008299D01*
X000970Y008452D01*
X001046Y008529D01*
X001123Y008529D01*
X001200Y008452D01*
X001277Y008529D01*
X001353Y008529D01*
X001430Y008452D01*
X001430Y008299D01*
X001353Y008222D01*
X001200Y008375D02*
X001200Y008452D01*
X001353Y008682D02*
X001046Y008682D01*
X000970Y008759D01*
X000970Y008913D01*
X001046Y008989D01*
X001353Y008682D01*
X001430Y008759D01*
X001430Y008913D01*
X001353Y008989D01*
X001046Y008989D01*
X000970Y009143D02*
X001200Y009143D01*
X001123Y009296D01*
X001123Y009373D01*
X001200Y009450D01*
X001353Y009450D01*
X001430Y009373D01*
X001430Y009219D01*
X001353Y009143D01*
X001353Y009603D02*
X001046Y009910D01*
X001353Y009910D01*
X001430Y009833D01*
X001430Y009680D01*
X001353Y009603D01*
X001046Y009603D01*
X000970Y009680D01*
X000970Y009833D01*
X001046Y009910D01*
X000970Y009450D02*
X000970Y009143D01*
X001046Y010524D02*
X001353Y010524D01*
X001430Y010601D01*
X001430Y010754D01*
X001353Y010831D01*
X001046Y010831D01*
X000970Y010754D01*
X000970Y010601D01*
X001046Y010524D01*
X001123Y010984D02*
X001123Y011215D01*
X001200Y011291D01*
X001353Y011291D01*
X001430Y011215D01*
X001430Y010984D01*
X001583Y010984D02*
X001123Y010984D01*
X001123Y011445D02*
X001123Y011598D01*
X001046Y011521D02*
X001353Y011521D01*
X001430Y011598D01*
X001430Y011752D02*
X001430Y011905D01*
X001430Y011828D02*
X001123Y011828D01*
X001123Y011752D01*
X000970Y011828D02*
X000893Y011828D01*
X001200Y012059D02*
X001353Y012059D01*
X001430Y012135D01*
X001430Y012365D01*
X001353Y012519D02*
X001277Y012596D01*
X001277Y012826D01*
X001200Y012826D02*
X001430Y012826D01*
X001430Y012596D01*
X001353Y012519D01*
X001123Y012596D02*
X001123Y012749D01*
X001200Y012826D01*
X001430Y012979D02*
X001430Y013133D01*
X001430Y013056D02*
X000970Y013056D01*
X000970Y012979D01*
X001123Y012365D02*
X001123Y012135D01*
X001200Y012059D01*
X001200Y013747D02*
X001200Y013977D01*
X001277Y014054D01*
X001353Y014054D01*
X001430Y013977D01*
X001430Y013747D01*
X000970Y013747D01*
X000970Y013977D01*
X001046Y014054D01*
X001123Y014054D01*
X001200Y013977D01*
X001200Y014207D02*
X001353Y014207D01*
X001430Y014284D01*
X001430Y014437D01*
X001353Y014514D01*
X001200Y014514D01*
X001123Y014437D01*
X001123Y014284D01*
X001200Y014207D01*
X001353Y014667D02*
X001277Y014744D01*
X001277Y014974D01*
X001200Y014974D02*
X001123Y014898D01*
X001123Y014744D01*
X001200Y014974D02*
X001430Y014974D01*
X001430Y014744D01*
X001353Y014667D01*
X001277Y015128D02*
X001123Y015281D01*
X001123Y015358D01*
X001200Y015512D02*
X001123Y015588D01*
X001123Y015818D01*
X000970Y015818D02*
X001430Y015818D01*
X001430Y015588D01*
X001353Y015512D01*
X001200Y015512D01*
X001123Y015128D02*
X001430Y015128D01*
X002270Y015147D02*
X002346Y015070D01*
X002653Y015070D01*
X002730Y015147D01*
X002730Y015300D01*
X002653Y015377D01*
X002730Y015530D02*
X002730Y015837D01*
X002730Y015684D02*
X002270Y015684D01*
X002423Y015530D01*
X002346Y015377D02*
X002270Y015300D01*
X002270Y015147D01*
X001430Y016432D02*
X000970Y016432D01*
X000970Y016662D01*
X001046Y016739D01*
X001200Y016739D01*
X001277Y016662D01*
X001277Y016432D01*
X001277Y016586D02*
X001430Y016739D01*
X001430Y016893D02*
X001430Y017200D01*
X001277Y017353D02*
X001430Y017507D01*
X001277Y017660D01*
X000970Y017660D01*
X000970Y017353D02*
X001277Y017353D01*
X001200Y017046D02*
X001200Y016893D01*
X000970Y016893D02*
X001430Y016893D01*
X000970Y016893D02*
X000970Y017200D01*
X001046Y018274D02*
X000970Y018351D01*
X000970Y018504D01*
X001046Y018581D01*
X001123Y018581D01*
X001200Y018504D01*
X001277Y018581D01*
X001353Y018581D01*
X001430Y018504D01*
X001430Y018351D01*
X001353Y018274D01*
X001200Y018427D02*
X001200Y018504D01*
X009570Y015680D02*
X009570Y015220D01*
X009570Y015373D02*
X009800Y015373D01*
X009877Y015450D01*
X009877Y015604D01*
X009800Y015680D01*
X009570Y015680D01*
X009723Y015373D02*
X009877Y015220D01*
X010030Y015220D02*
X010337Y015220D01*
X010184Y015220D02*
X010184Y015680D01*
X010030Y015527D01*
X008444Y004080D02*
X008444Y003620D01*
X008137Y004080D01*
X008137Y003620D01*
X007984Y003620D02*
X007830Y003620D01*
X007907Y003620D02*
X007907Y004080D01*
X007830Y004080D02*
X007984Y004080D01*
X007677Y004080D02*
X007677Y003773D01*
X007523Y003620D01*
X007370Y003773D01*
X007370Y004080D01*
X007034Y004080D02*
X006880Y004080D01*
X006957Y004080D02*
X006957Y003620D01*
X006880Y003620D02*
X007034Y003620D01*
X006727Y003620D02*
X006727Y004080D01*
X006573Y003927D01*
X006420Y004080D01*
X006420Y003620D01*
X006137Y003697D02*
X006137Y004004D01*
X006061Y004080D01*
X005907Y004080D01*
X005830Y004004D01*
X005830Y003697D01*
X005907Y003620D01*
X006061Y003620D01*
X006137Y003697D01*
X005677Y003620D02*
X005677Y004080D01*
X005523Y003927D01*
X005370Y004080D01*
X005370Y003620D01*
X005187Y003697D02*
X005111Y003620D01*
X004957Y003620D01*
X004880Y003697D01*
X004880Y004004D01*
X004957Y004080D01*
X005111Y004080D01*
X005187Y004004D01*
X004727Y004004D02*
X004650Y004080D01*
X004497Y004080D01*
X004420Y004004D01*
X004420Y003927D01*
X004497Y003850D01*
X004650Y003850D01*
X004727Y003773D01*
X004727Y003697D01*
X004650Y003620D01*
X004497Y003620D01*
X004420Y003697D01*
X004697Y001280D02*
X004620Y001204D01*
X004620Y000897D01*
X004697Y000820D01*
X004850Y000820D01*
X004927Y000897D01*
X004927Y001050D01*
X004773Y001050D01*
X004927Y001204D02*
X004850Y001280D01*
X004697Y001280D01*
X005470Y001204D02*
X005547Y001280D01*
X005700Y001280D01*
X005777Y001204D01*
X005777Y001127D01*
X005700Y001050D01*
X005777Y000973D01*
X005777Y000897D01*
X005700Y000820D01*
X005547Y000820D01*
X005470Y000897D01*
X005623Y001050D02*
X005700Y001050D01*
X005930Y000973D02*
X006084Y000820D01*
X006237Y000973D01*
X006237Y001280D01*
X005930Y001280D02*
X005930Y000973D01*
X006620Y000820D02*
X006620Y001280D01*
X006773Y001127D01*
X006927Y001280D01*
X006927Y000820D01*
X007420Y000820D02*
X007420Y001280D01*
X007727Y000820D01*
X007727Y001280D01*
X007880Y001204D02*
X007880Y000897D01*
X007957Y000820D01*
X008111Y000820D01*
X008187Y000897D01*
X008187Y001204D02*
X008111Y001280D01*
X007957Y001280D01*
X007880Y001204D01*
D12*
X004240Y003900D02*
X001660Y003900D01*
X001660Y005200D01*
X004240Y005200D01*
X004240Y003900D01*
D13*
X003233Y002620D02*
X003133Y002620D01*
X003183Y002620D02*
X003183Y002770D01*
X003133Y002720D01*
X003085Y002770D02*
X003085Y002645D01*
X003060Y002620D01*
X003010Y002620D01*
X002985Y002645D01*
X002985Y002770D01*
D14*
X004300Y003200D02*
X004300Y001700D01*
X004550Y001450D01*
X005050Y001450D01*
X005300Y001700D01*
X005300Y003200D01*
X005050Y003450D01*
X004550Y003450D01*
X004300Y003200D01*
X005300Y003200D02*
X005550Y003450D01*
X006050Y003450D01*
X006300Y003200D01*
X006300Y001700D01*
X006050Y001450D01*
X005550Y001450D01*
X005300Y001700D01*
X006300Y001700D02*
X006550Y001450D01*
X007050Y001450D01*
X007300Y001700D01*
X007300Y003200D01*
X007050Y003450D01*
X006550Y003450D01*
X006300Y003200D01*
X007300Y003200D02*
X007550Y003450D01*
X008050Y003450D01*
X008300Y003200D01*
X008300Y001700D01*
X008050Y001450D01*
X007550Y001450D01*
X007300Y001700D01*
D15*
X008425Y001994D02*
X008425Y002144D01*
X008425Y002069D02*
X008800Y002069D01*
X008875Y001994D01*
X008875Y001919D01*
X008800Y001844D01*
X008875Y002304D02*
X008425Y002304D01*
X008425Y002529D01*
X008500Y002604D01*
X008650Y002604D01*
X008725Y002529D01*
X008725Y002304D01*
X008875Y002765D02*
X008875Y003065D01*
X008875Y002915D02*
X008425Y002915D01*
X008575Y002765D01*
M02*
